<?xml version="1.0" standalone="no"?>
<!DOCTYPE svg PUBLIC "-//W3C//DTD SVG 20010904//EN"
 "http://www.w3.org/TR/2001/REC-SVG-20010904/DTD/svg10.dtd">
<svg version="1.0" xmlns="http://www.w3.org/2000/svg"
 width="1488.000000pt" height="1488.000000pt" viewBox="0 0 1488.000000 1488.000000"
 preserveAspectRatio="xMidYMid meet">
<metadata>
Created by potrace 1.11, written by Peter Selinger 2001-2013
</metadata>
<g transform="translate(0.000000,1488.000000) scale(0.100000,-0.100000)"
fill="#000000" stroke="none">
<path d="M3536 14703 c3 -93 7 -170 10 -172 2 -2 -1 -12 -7 -22 -5 -11 -6 -19
-2 -19 4 0 9 -46 9 -103 2 -126 12 -466 19 -647 3 -74 8 -182 10 -240 8 -202
14 -305 20 -355 3 -28 7 -68 10 -90 9 -91 80 -346 97 -353 4 -2 8 -10 8 -17 0
-21 72 -140 107 -177 42 -43 51 -51 93 -70 109 -51 199 -41 311 34 62 42 262
233 311 298 14 19 39 51 55 71 15 21 46 65 68 100 22 34 47 72 55 85 8 12 27
42 41 66 133 223 253 419 325 528 27 41 51 79 53 85 2 5 8 14 13 20 4 5 31 42
58 80 66 94 81 113 110 149 145 180 282 319 335 341 55 24 111 19 155 -12 49
-35 126 -151 155 -233 6 -18 18 -48 26 -65 11 -26 48 -144 52 -170 2 -11 7
-27 10 -35 6 -17 25 -110 31 -155 6 -44 16 -106 21 -135 3 -14 7 -45 10 -70 7
-60 13 -108 19 -150 3 -19 8 -62 11 -95 3 -33 8 -76 10 -95 4 -32 11 -113 20
-215 4 -47 16 -235 20 -320 2 -33 7 -161 10 -285 4 -124 8 -236 9 -250 1 -14
-2 -40 -5 -57 -4 -18 -4 -31 0 -29 8 5 5 -119 -3 -133 -4 -6 -4 -11 1 -11 9 0
9 -172 -1 -188 -3 -6 -2 -13 3 -16 5 -3 6 -21 1 -40 -4 -19 -5 -37 -3 -40 3
-3 4 -29 4 -58 -7 -292 -10 -361 -16 -366 -3 -3 -158 -7 -343 -8 -329 -2 -376
-5 -414 -25 -10 -5 -18 -6 -18 -2 0 4 -4 3 -8 -2 -4 -6 -19 -16 -35 -24 -28
-15 -57 -42 -102 -96 -32 -38 -67 -143 -67 -200 0 -62 29 -175 44 -175 5 0 7
-4 4 -9 -10 -15 88 -109 141 -135 28 -14 76 -29 105 -33 58 -9 1664 -9 1688
-1 8 3 28 10 43 16 16 7 31 12 34 12 30 0 160 151 172 200 2 8 7 27 11 42 9
28 7 128 -3 168 -12 46 -56 125 -88 158 -36 36 -89 77 -89 67 0 -3 -11 2 -25
11 -14 9 -28 14 -32 11 -3 -4 -15 -1 -26 5 -13 7 -141 11 -371 13 -299 2 -351
5 -361 18 -12 16 -13 227 -1 245 3 6 2 13 -2 16 -7 4 -9 51 -2 51 5 0 5 795
-1 827 -3 20 -3 42 2 49 4 7 5 17 2 23 -4 5 -8 55 -9 110 -3 99 -8 206 -20
356 -3 41 -7 100 -9 130 -4 52 -6 82 -19 220 -3 30 -8 69 -10 85 -2 17 -7 59
-10 95 -4 36 -10 79 -13 95 -6 30 -7 38 -17 123 -9 76 -46 254 -72 352 -13 52
-27 102 -29 110 -2 8 -4 16 -5 18 -2 1 -3 5 -4 10 -4 20 -53 145 -81 207 -119
260 -292 380 -495 343 -65 -12 -161 -62 -244 -128 -36 -28 -161 -155 -211
-214 -27 -33 -55 -64 -60 -70 -22 -24 -136 -187 -206 -296 -101 -154 -109
-169 -108 -176 0 -4 -3 -10 -9 -13 -7 -5 -52 -78 -102 -169 -8 -15 -37 -62
-63 -105 -26 -43 -47 -82 -47 -87 0 -6 -4 -10 -9 -10 -5 0 -11 -8 -15 -17 -3
-10 -11 -27 -18 -38 -72 -110 -112 -171 -117 -175 -3 -3 -22 -27 -41 -55 -19
-27 -44 -60 -55 -72 -11 -11 -37 -42 -59 -67 -160 -190 -237 -234 -299 -172
-28 28 -70 123 -82 185 -1 9 -8 36 -15 61 -16 59 -27 112 -45 215 -2 17 -7 39
-9 50 -2 11 -7 52 -11 90 -3 39 -9 88 -11 110 -23 203 -34 546 -35 1053 l0
422 -125 0 -124 0 6 -167z"/>
<path d="M5587 10254 c-1 -1 -27 -4 -57 -7 -72 -7 -93 -12 -143 -37 -64 -32
-119 -88 -152 -155 -26 -54 -29 -69 -28 -150 2 -118 3 -124 14 -130 5 -4 7
-10 4 -15 -3 -4 2 -13 10 -20 8 -7 15 -18 15 -24 0 -6 17 -30 38 -52 104 -112
156 -124 537 -125 1197 -1 1238 -1 1302 6 137 16 222 77 285 204 88 181 0 405
-190 481 -18 7 -45 15 -60 17 -24 4 -1571 11 -1575 7z"/>
<path d="M5577 9444 c-3 -3 -25 -8 -49 -10 -124 -12 -243 -91 -295 -195 -19
-38 -37 -114 -35 -144 6 -77 17 -120 43 -170 59 -113 156 -180 281 -193 98
-10 1574 -7 1624 3 21 5 42 8 47 7 4 -1 7 3 7 8 0 6 3 9 8 8 21 -6 89 32 132
72 115 111 141 302 58 439 -52 85 -165 156 -266 167 -73 8 -1288 8 -1301 0 -6
-4 -11 -3 -11 3 0 6 -11 7 -27 3 -33 -9 -186 -7 -200 1 -6 4 -13 4 -16 1z"/>
<path d="M9430 8970 c-14 -4 -233 -216 -505 -490 -264 -265 -491 -492 -504
-505 -27 -27 -34 -92 -12 -119 23 -27 69 -47 94 -41 13 4 41 22 63 40 21 19
42 35 47 35 4 0 7 3 7 8 0 4 209 217 465 473 l465 465 0 46 c0 73 -48 108
-120 88z"/>
<path d="M6229 8386 c-2 -2 -33 -6 -69 -10 -107 -9 -124 -12 -196 -35 -111
-36 -247 -105 -324 -166 -37 -29 -160 -157 -160 -166 0 -4 -6 -14 -12 -21 -30
-31 -97 -179 -114 -250 -18 -78 -22 -99 -29 -173 -5 -44 -10 -5292 -5 -5325 0
-3 2 -39 4 -80 4 -67 37 -245 46 -245 1 0 3 -8 5 -17 9 -48 123 -255 162 -296
7 -7 13 -18 13 -23 0 -6 5 -7 10 -4 6 3 10 2 10 -4 0 -18 75 -87 195 -179 33
-25 209 -107 250 -116 6 -2 28 -8 50 -14 162 -45 351 -45 535 2 86 22 195 73
283 134 88 60 140 112 256 258 5 6 21 35 36 64 31 62 38 71 88 121 44 45 82
57 199 63 48 3 108 8 135 12 26 4 55 8 63 8 9 1 20 5 25 8 6 3 26 9 45 13 19
4 40 10 45 13 6 4 15 7 20 8 13 2 132 59 172 82 76 45 164 120 247 212 27 30
86 118 86 128 0 6 3 12 8 14 16 7 77 154 98 233 4 17 8 32 9 35 2 7 16 90 20
125 4 30 5 114 2 230 -2 72 7 85 104 138 138 76 275 197 364 323 47 65 124
204 130 233 2 9 11 39 21 66 31 90 29 84 39 135 21 108 21 291 0 410 -9 48
-43 168 -59 205 -7 17 -19 45 -26 63 -7 17 -17 32 -23 32 -6 0 -7 3 -4 6 4 4
-2 19 -13 34 -11 16 -20 31 -20 34 0 6 -39 65 -50 76 -3 3 -21 25 -41 50 -63
78 -136 145 -262 242 l-35 28 14 52 c25 93 66 301 72 363 7 74 6 249 -1 290
-37 208 -109 344 -274 514 -51 53 -93 93 -93 89 0 -3 -15 8 -34 25 -40 36 -43
39 -111 87 -28 19 -51 38 -53 42 -2 4 -8 8 -13 8 -5 0 -27 12 -49 26 l-40 27
6 56 c16 151 0 322 -41 431 -25 66 -78 174 -87 178 -4 2 -8 8 -8 14 0 29 -207
248 -236 248 -8 0 -14 5 -14 10 0 6 -6 10 -14 10 -8 0 -16 4 -18 8 -7 19 -172
89 -248 107 -48 11 -97 18 -149 21 -91 5 -96 8 -121 72 -60 154 -120 251 -206
334 -52 49 -140 118 -151 118 -3 0 -14 6 -22 14 -55 50 -251 121 -361 132 -36
3 -68 8 -71 10 -3 2 -8 2 -10 0z"/>
<path d="M10533 7638 c-18 -6 -33 -15 -33 -19 0 -5 -4 -9 -10 -9 -5 0 -48 -23
-95 -50 -46 -28 -88 -51 -92 -51 -5 0 -15 -6 -23 -13 -8 -8 -35 -25 -60 -38
-88 -49 -247 -141 -550 -318 -63 -37 -142 -82 -175 -100 -33 -19 -63 -38 -67
-44 -4 -6 -8 -7 -8 -2 0 5 -8 3 -17 -5 -10 -8 -29 -21 -43 -27 -56 -29 -84
-75 -75 -124 5 -26 62 -78 85 -78 8 0 51 21 95 45 44 25 88 48 98 51 9 4 17
10 17 15 0 5 4 9 10 9 5 0 80 41 167 91 395 228 561 324 603 347 25 14 56 32
70 41 47 30 65 41 104 62 71 38 109 76 123 122 9 30 8 38 -11 60 -21 25 -57
48 -73 46 -4 -1 -23 -6 -40 -11z"/>
<path d="M10995 6082 c-3 -3 -109 -33 -165 -46 -8 -2 -109 -29 -225 -61 -115
-31 -217 -58 -225 -60 -8 -1 -35 -8 -60 -15 -25 -7 -56 -14 -69 -17 -13 -2
-31 -8 -40 -12 -9 -5 -34 -12 -56 -16 -22 -5 -44 -10 -50 -12 -5 -1 -50 -14
-100 -28 -49 -13 -115 -31 -145 -40 -30 -9 -63 -18 -74 -20 -182 -41 -225
-100 -138 -187 l37 -38 180 49 c375 102 671 182 688 186 10 2 52 14 95 25 42
12 85 23 95 25 9 2 21 6 25 9 5 3 19 7 33 10 13 3 58 14 99 25 195 51 214 60
228 101 22 63 -29 133 -94 128 -19 -1 -36 -4 -39 -6z"/>
<path d="M9937 4324 c-3 -4 -25 -8 -48 -9 -54 -4 -85 -21 -99 -55 -19 -45 -9
-82 29 -107 l33 -22 708 -1 c483 0 717 3 736 11 45 17 66 45 61 82 -5 42 -26
75 -52 84 -11 4 -317 7 -680 8 -363 0 -665 4 -671 8 -6 3 -14 4 -17 1z"/>
<path d="M9441 2881 c-26 -24 -31 -37 -31 -74 0 -39 4 -49 31 -67 25 -19 77
-36 159 -55 8 -2 67 -18 130 -35 63 -18 126 -34 139 -36 13 -3 32 -9 42 -14
10 -6 28 -10 42 -10 13 0 27 -3 31 -7 3 -4 17 -8 29 -10 12 -2 33 -8 47 -13
14 -5 36 -12 50 -14 14 -3 40 -9 58 -15 18 -5 34 -10 37 -11 3 0 10 -2 17 -5
7 -2 40 -10 73 -19 33 -8 87 -22 120 -31 33 -9 130 -34 215 -56 173 -45 165
-43 203 -54 24 -6 33 -2 62 28 19 20 35 46 35 58 0 26 -35 86 -59 98 -16 9
-144 45 -288 81 -40 10 -76 21 -81 24 -5 3 -20 7 -34 10 -14 2 -70 16 -124 31
-55 15 -106 29 -114 31 -8 2 -33 8 -55 14 -22 6 -51 13 -65 16 -14 2 -36 9
-50 14 -25 9 -156 45 -201 54 -13 3 -91 23 -174 44 -219 57 -209 56 -244 23z"/>
<path d="M8524 1656 c-33 -28 -39 -39 -39 -74 0 -34 6 -46 35 -71 19 -17 38
-31 42 -31 4 0 48 -25 99 -55 50 -30 93 -55 94 -55 2 0 65 -37 141 -81 77 -45
159 -93 184 -107 25 -13 50 -28 55 -32 6 -4 30 -19 55 -32 25 -14 61 -34 80
-45 505 -291 505 -291 557 -258 45 30 46 82 2 142 -15 21 -261 173 -280 173
-5 0 -9 5 -9 10 0 6 -4 10 -9 10 -5 0 -97 52 -205 115 -108 63 -215 125 -239
138 -23 13 -58 34 -77 46 -19 11 -41 24 -49 28 -8 4 -76 42 -150 86 -113 65
-231 127 -245 127 -1 0 -20 -15 -42 -34z"/>
<path d="M7362 878 c-7 -7 -12 -9 -12 -5 0 17 -52 -45 -59 -71 -14 -48 15 -83
110 -135 24 -13 60 -32 79 -43 19 -10 37 -21 40 -24 3 -3 19 -12 35 -21 17 -8
91 -51 165 -94 74 -43 151 -87 170 -98 19 -10 121 -69 225 -130 105 -60 204
-118 221 -128 17 -9 42 -23 55 -31 13 -7 26 -15 29 -18 3 -3 21 -13 40 -23 19
-10 49 -25 65 -35 67 -36 129 -15 152 53 19 57 -25 97 -217 201 -19 10 -36 22
-38 27 -2 4 -7 7 -12 7 -5 0 -54 27 -110 60 -56 33 -104 60 -106 60 -2 0 -23
12 -47 27 -39 25 -99 60 -207 121 -25 14 -124 71 -220 127 -216 126 -324 185
-336 185 -6 0 -15 -5 -22 -12z"/>
</g>
</svg>
