<?xml version="1.0" encoding="UTF-8"?>
<svg xmlns="http://www.w3.org/2000/svg" xmlns:xlink="http://www.w3.org/1999/xlink" width="200pt" height="200pt" viewBox="0 0 200 200" version="1.1">
<g id="surface1862">
<path style=" stroke:none;fill-rule:nonzero;fill:rgb(100%,100%,100%);fill-opacity:1;" d="M 112.75 0 C 123.75 25.453125 73.3125 41.171875 68.625 62.375 C 64.328125 81.859375 98.59375 104.5 98.625 104.5 C 93.421875 96.4375 89.59375 89.796875 84.375 77.25 C 75.546875 56.03125 138.140625 36.828125 112.75 0 Z M 146.25 35.25 C 146.25 35.25 102 38.09375 99.75 66.375 C 98.75 78.96875 111.390625 85.59375 111.75 94.75 C 112.046875 102.234375 104.25 108.5 104.25 108.5 C 104.25 108.5 118.4375 105.796875 122.875 94.375 C 127.796875 81.703125 113.28125 73.140625 114.75 63 C 116.15625 53.296875 146.25 35.25 146.25 35.25 Z M 76.75 100.625 C 76.75 100.625 36.25 100.046875 36.25 111.5 C 36.25 123.46875 89.265625 124.359375 127.125 117 C 127.125 117 137.1875 110.078125 139.875 107.5 C 115.0625 112.5625 58.5 113.125 58.5 108.75 C 58.5 104.71875 76.75 100.625 76.75 100.625 Z M 154.625 100.625 C 150.65625 100.9375 146.375 102.46875 142.5 105.25 C 151.625 103.28125 159.375 108.9375 159.375 115.375 C 159.375 129.875 138.375 143.5 138.375 143.5 C 138.375 143.5 170.875 139.8125 170.875 116 C 170.875 105.1875 163.359375 99.9375 154.625 100.625 Z M 67 122.875 C 60.78125 122.875 51.5 127.75 51.5 132.375 C 51.5 141.671875 98.25 148.828125 132.875 135.25 L 120.875 127.875 C 97.40625 135.390625 54.1875 132.9375 67 122.875 Z M 72.75 143.75 C 64.234375 143.75 58.625 148.890625 58.625 152.75 C 58.625 164.6875 109.484375 165.890625 129.625 153.75 L 116.875 145.625 C 101.828125 151.984375 64.0625 152.953125 72.75 143.75 Z M 44.375 154.5 C 30.5 154.21875 21.5 160.453125 21.5 165.625 C 21.5 193.125 163.5 191.859375 163.5 163.75 C 163.5 159.078125 158.109375 156.8125 156.125 155.75 C 167.734375 182.625 39.875 180.484375 39.875 164.625 C 39.875 161.015625 49.28125 157.5625 58 159.25 L 50.625 155 C 48.453125 154.671875 46.359375 154.546875 44.375 154.5 Z M 178.5 173 C 156.90625 193.46875 102.1875 200.890625 47.125 188.25 C 102.171875 210.78125 178.234375 198.140625 178.5 173 Z M 178.5 173 "/>
</g>
</svg>
