<?xml version="1.0" encoding="UTF-8"?>
<svg xmlns="http://www.w3.org/2000/svg" xmlns:xlink="http://www.w3.org/1999/xlink" width="200pt" height="200pt" viewBox="0 0 200 200" version="1.1">
<g id="surface1909">
<path style=" stroke:none;fill-rule:nonzero;fill:rgb(100%,100%,100%);fill-opacity:1;" d="M 175 154.167969 C 175 165.675781 165.675781 175 154.167969 175 L 45.832031 175 C 34.328125 175 25 165.675781 25 154.167969 L 25 45.832031 C 25 34.324219 34.328125 25 45.832031 25 L 154.167969 25 C 165.675781 25 175 34.324219 175 45.832031 Z M 175 154.167969 "/>
<path style=" stroke:none;fill-rule:nonzero;fill:rgb(100%,100%,100%);fill-opacity:1;" d="M 137.625 106.667969 C 134.917969 102.917969 131 100.332031 125.957031 98.957031 C 125.957031 98.957031 130.207031 97.417969 134.042969 91.667969 C 136.332031 88 137.5 83.582031 137.5 78.417969 C 137.5 69.457031 134.25 62.582031 127.75 57.875 C 121.25 53.167969 113.917969 50 101.457031 50 L 62.5 50 L 62.5 150 L 105.957031 150 C 117.75 149.917969 126.625 147.375 132.667969 142.5 C 138.667969 137.542969 141.667969 130.207031 141.667969 120.417969 C 141.667969 115 140.332031 110.417969 137.625 106.667969 Z M 87.5 66.667969 C 87.5 66.667969 104.875 66.667969 105.207031 66.667969 C 111.542969 66.667969 116.667969 71.792969 116.667969 78.125 C 116.667969 84.457031 111.542969 89.582031 105.207031 89.582031 C 104.875 89.582031 87.5 89.582031 87.5 89.582031 Z M 108.332031 133.332031 L 87.5 133.332031 L 87.5 108.332031 L 108.332031 108.332031 C 115.25 108.332031 120.832031 113.917969 120.832031 120.832031 C 120.832031 127.75 115.25 133.332031 108.332031 133.332031 Z M 108.332031 133.332031 "/>
</g>
</svg>
