<?xml version="1.0" encoding="UTF-8"?>
<svg xmlns="http://www.w3.org/2000/svg" xmlns:xlink="http://www.w3.org/1999/xlink" width="200pt" height="200pt" viewBox="0 0 200 200" version="1.1">
<g id="surface1890">
<path style=" stroke:none;fill-rule:nonzero;fill:rgb(100%,100%,100%);fill-opacity:1;" d="M 65.5 -0.125 C 65.328125 -0.09375 65.15625 -0.046875 65 0 C 63.6875 0.296875 62.609375 1.21875 62.125 2.484375 C 61.640625 3.75 61.828125 5.15625 62.625 6.25 L 71.125 19 C 56.734375 26.5625 46.40625 39.609375 44 55.125 C 44 55.171875 44 55.203125 44 55.25 C 44 55.296875 44 55.328125 44 55.375 C 44 55.5 44 55.625 44 55.75 C 44 55.828125 44 55.921875 44 56 C 43.984375 56.203125 43.984375 56.421875 44 56.625 L 44 62.25 C 41.625 60.859375 38.9375 60 36 60 C 27.203125 60 20 67.203125 20 76 L 20 124 C 20 132.796875 27.203125 140 36 140 C 38.9375 140 41.625 139.140625 44 137.75 L 44 148 C 44 154.578125 49.421875 160 56 160 L 60 160 L 60 184 C 60 192.796875 67.203125 200 76 200 C 84.796875 200 92 192.796875 92 184 L 92 160 L 108 160 L 108 184 C 108 192.796875 115.203125 200 124 200 C 132.796875 200 140 192.796875 140 184 L 140 160 L 144 160 C 150.578125 160 156 154.578125 156 148 L 156 137.75 C 158.375 139.140625 161.0625 140 164 140 C 172.796875 140 180 132.796875 180 124 L 180 76 C 180 67.203125 172.796875 60 164 60 C 161.0625 60 158.375 60.859375 156 62.25 L 156 56.75 C 156.046875 56.375 156.046875 56 156 55.625 C 156 55.578125 156 55.546875 156 55.5 C 156 55.453125 156 55.421875 156 55.375 C 153.671875 39.75 143.34375 26.59375 128.875 19 L 137.375 6.25 C 138.359375 4.90625 138.390625 3.09375 137.46875 1.703125 C 136.5625 0.3125 134.875 -0.375 133.25 0 C 132.21875 0.234375 131.3125 0.859375 130.75 1.75 L 121.375 15.625 C 114.78125 13.25 107.53125 12 100 12 C 92.46875 12 85.21875 13.25 78.625 15.625 L 69.25 1.75 C 68.453125 0.46875 67 -0.25 65.5 -0.125 Z M 100 20 C 107.515625 20 114.5625 21.46875 120.75 24.125 C 120.875 24.171875 121 24.21875 121.125 24.25 C 133.640625 29.734375 142.75 40 146.25 52 L 53.75 52 C 57.203125 40.171875 66.125 30.03125 78.375 24.5 C 78.640625 24.40625 78.890625 24.28125 79.125 24.125 C 85.34375 21.4375 92.4375 20 100 20 Z M 78 32 C 74.671875 32 72 34.6875 72 38 C 72 41.328125 74.671875 44 78 44 C 81.3125 44 84 41.328125 84 38 C 84 34.6875 81.3125 32 78 32 Z M 122 32 C 118.6875 32 116 34.6875 116 38 C 116 41.328125 118.6875 44 122 44 C 125.328125 44 128 41.328125 128 38 C 128 34.6875 125.328125 32 122 32 Z M 52 60 L 148 60 L 148 148 C 148 150.25 146.25 152 144 152 L 112.75 152 C 112.21875 151.890625 111.65625 151.890625 111.125 152 L 64.75 152 C 64.21875 151.890625 63.65625 151.890625 63.125 152 L 56 152 C 53.75 152 52 150.25 52 148 Z M 36 68 C 40.46875 68 44 71.53125 44 76 L 44 124 C 44 128.46875 40.46875 132 36 132 C 31.53125 132 28 128.46875 28 124 L 28 76 C 28 71.53125 31.53125 68 36 68 Z M 164 68 C 168.46875 68 172 71.53125 172 76 L 172 124 C 172 128.46875 168.46875 132 164 132 C 159.53125 132 156 128.46875 156 124 L 156 76 C 156 71.53125 159.53125 68 164 68 Z M 68 160 L 84 160 L 84 184 C 84 188.46875 80.46875 192 76 192 C 71.53125 192 68 188.46875 68 184 Z M 116 160 L 132 160 L 132 184 C 132 188.46875 128.46875 192 124 192 C 119.53125 192 116 188.46875 116 184 Z M 116 160 "/>
</g>
</svg>
