<?xml version="1.0" encoding="UTF-8"?>
<svg xmlns="http://www.w3.org/2000/svg" xmlns:xlink="http://www.w3.org/1999/xlink" width="200pt" height="200pt" viewBox="0 0 200 200" version="1.1">
<g id="surface1878">
<path style=" stroke:none;fill-rule:nonzero;fill:rgb(100%,100%,100%);fill-opacity:1;" d="M 120.125 12 C 119.46875 11.984375 118.8125 12.125 118.21875 12.421875 C 115.703125 13.671875 114.09375 15.515625 112.640625 17.125 C 111.203125 18.734375 110.125 20.171875 110.125 20.171875 C 110.078125 20.234375 110.03125 20.296875 110 20.359375 C 106.03125 26.328125 104.078125 33.125 104 39.96875 C 103.953125 45.234375 105.015625 50.53125 107.078125 55.515625 C 112.125 67.625 122.265625 76.984375 134.1875 81.453125 L 134.203125 81.453125 C 134.75 81.671875 135.234375 81.84375 135.625 81.984375 C 135.6875 82 135.75 82.015625 135.8125 82.046875 C 135.890625 82.0625 136.0625 82.125 136.359375 82.203125 C 136.8125 82.359375 137.578125 82.671875 138.703125 82.890625 C 141.96875 83.546875 145.015625 83.890625 147.875 83.984375 C 160.53125 84.375 169.296875 79.5 174.765625 74.171875 C 177.5 71.5 179.453125 68.734375 180.828125 66.484375 C 182.21875 64.234375 183.28125 62.203125 183.296875 62.1875 L 183.3125 62.1875 C 184.515625 60.359375 184.03125 57.90625 182.234375 56.671875 C 180.421875 55.4375 177.953125 55.890625 176.6875 57.6875 C 173.59375 62.234375 169.75 64.84375 164.84375 66.109375 C 159.9375 67.375 153.90625 67.1875 146.984375 65.46875 C 146.046875 65.234375 144.890625 64.859375 143.84375 64.46875 C 143.84375 64.46875 143.828125 64.46875 143.8125 64.453125 C 142.546875 64 141.25 63.453125 139.984375 62.84375 L 139.96875 62.828125 L 139.9375 62.8125 C 137.578125 61.640625 135.296875 60.234375 133.21875 58.609375 C 127.46875 54.140625 123 46.828125 121.09375 39.1875 C 119.1875 31.546875 119.84375 23.765625 123.390625 18.125 C 124.15625 16.90625 124.203125 15.375 123.53125 14.109375 C 122.859375 12.84375 121.5625 12.046875 120.125 12 Z M 83.984375 20 C 83.0625 20 82.171875 20.328125 81.46875 20.90625 C 75.0625 26.125 68.96875 34.234375 68.96875 34.234375 C 68.921875 34.28125 68.890625 34.34375 68.859375 34.40625 C 57.015625 51.625 57.75 74.265625 66.765625 92.125 C 68.25 95.078125 69.9375 97.953125 71.828125 100.6875 C 71.84375 100.703125 71.84375 100.703125 71.84375 100.703125 C 73.328125 102.890625 75.125 105.75 77.71875 108.140625 C 78.5625 109.109375 79.4375 110.015625 80.3125 110.875 C 80.515625 111.09375 80.734375 111.3125 80.9375 111.515625 C 80.953125 111.546875 80.96875 111.5625 80.984375 111.5625 C 81.8125 112.375 82.671875 113.1875 83.5625 113.984375 L 83.578125 114 C 83.609375 114.03125 83.65625 114.078125 83.6875 114.109375 L 83.75 114.140625 C 83.796875 114.203125 83.859375 114.25 83.921875 114.296875 C 84.859375 115.140625 85.8125 115.9375 86.796875 116.703125 C 86.84375 116.75 86.875 116.78125 86.921875 116.8125 C 86.921875 116.8125 87.140625 117 87.59375 117.328125 C 88.59375 118.109375 89.609375 118.859375 90.609375 119.578125 C 90.734375 119.671875 90.875 119.765625 91 119.828125 C 91.09375 119.890625 91.15625 119.9375 91.234375 120 L 91.25 120 C 91.609375 120.25 91.96875 120.484375 92.265625 120.6875 C 92.359375 120.75 92.578125 120.90625 92.9375 121.140625 C 93.71875 121.65625 94.484375 122.125 95.28125 122.609375 C 95.359375 122.65625 95.453125 122.703125 95.53125 122.75 C 95.53125 122.75 95.65625 122.8125 95.796875 122.875 C 95.828125 122.90625 95.828125 122.890625 95.875 122.921875 C 96.5 123.296875 97.140625 123.671875 97.8125 124.015625 C 98.046875 124.15625 98.328125 124.296875 98.40625 124.34375 C 98.453125 124.375 98.5 124.390625 98.546875 124.421875 C 98.953125 124.625 99.390625 124.859375 99.84375 125.109375 C 100.234375 125.3125 100.34375 125.328125 100.3125 125.328125 C 101.3125 125.8125 102.265625 126.25 103.15625 126.671875 C 103.21875 126.6875 103.28125 126.71875 103.359375 126.75 C 103.546875 126.828125 103.703125 126.890625 103.90625 126.984375 C 104.703125 127.3125 105.53125 127.6875 106.40625 128.015625 C 106.453125 128.03125 106.515625 128.0625 106.5625 128.078125 C 106.734375 128.140625 107.03125 128.25 107.484375 128.421875 C 107.484375 128.421875 107.5 128.421875 107.5 128.4375 C 108.25 128.703125 109.015625 128.953125 109.765625 129.203125 C 110.15625 129.34375 110.5 129.453125 110.796875 129.5625 C 110.796875 129.5625 110.796875 129.5625 110.8125 129.5625 C 111.640625 129.828125 112.875 130.34375 114.546875 130.625 C 114.546875 130.625 114.546875 130.609375 114.5625 130.625 C 120.875 131.671875 126.703125 132.09375 132.078125 131.984375 C 154.0625 131.5 168.3125 121.8125 176.671875 112.28125 C 185.015625 102.75 187.828125 93.125 187.828125 93.125 C 188.390625 91.234375 187.484375 89.234375 185.703125 88.390625 C 183.9375 87.546875 181.8125 88.125 180.6875 89.75 C 170.0625 105.28125 149.40625 113.265625 126.8125 107.3125 C 125.8125 107.0625 124.84375 106.78125 123.890625 106.453125 C 123.828125 106.4375 123.75 106.40625 123.671875 106.390625 C 123.53125 106.359375 123.34375 106.296875 123.015625 106.1875 C 122.984375 106.171875 122.953125 106.15625 122.9375 106.140625 C 122.203125 105.90625 121.515625 105.6875 120.890625 105.4375 C 120.890625 105.4375 120.890625 105.4375 120.875 105.4375 C 120.515625 105.296875 120.203125 105.1875 119.9375 105.078125 C 119.140625 104.765625 118.390625 104.46875 117.75 104.1875 C 117.703125 104.15625 117.671875 104.140625 117.625 104.125 C 117.28125 103.984375 117.125 103.90625 117.34375 104.015625 C 117.25 103.96875 117.15625 103.9375 117.0625 103.890625 C 116.1875 103.5 115.28125 103.078125 114.375 102.625 L 114.3125 102.609375 C 114.3125 102.59375 114.296875 102.59375 114.28125 102.578125 C 113.828125 102.34375 113.390625 102.125 112.9375 101.875 C 112.921875 101.875 112.90625 101.859375 112.875 101.859375 C 112.59375 101.703125 112.328125 101.5625 112.09375 101.4375 L 112.09375 101.453125 C 111.578125 101.1875 111.046875 100.859375 110.421875 100.484375 C 110.375 100.46875 110.34375 100.453125 110.3125 100.4375 C 110.125 100.328125 110.0625 100.296875 110.03125 100.265625 L 110.015625 100.265625 L 109.984375 100.25 C 109.21875 99.78125 108.5 99.34375 107.9375 98.953125 C 107.859375 98.90625 107.765625 98.859375 107.6875 98.8125 C 107.75 98.84375 107.578125 98.71875 107.171875 98.453125 C 106.75 98.1875 106.3125 97.90625 105.84375 97.578125 L 105.828125 97.578125 C 105.8125 97.5625 105.796875 97.546875 105.765625 97.546875 C 104.890625 96.90625 103.984375 96.21875 103.0625 95.515625 L 102.984375 95.4375 C 102.765625 95.265625 102.578125 95.125 102.453125 95.015625 C 102.421875 95 102.390625 94.96875 102.359375 94.9375 C 92.390625 86.984375 84.546875 76.09375 80.859375 63.921875 L 80.859375 63.90625 C 77.15625 51.921875 80.96875 37.203125 87.453125 26 C 88.171875 24.765625 88.171875 23.234375 87.453125 21.984375 C 86.734375 20.75 85.40625 20 83.984375 20 Z M 40.015625 32 C 39.03125 32 38.0625 32.359375 37.328125 33.03125 C 37.109375 33.21875 37 33.421875 36.78125 33.625 C 29.015625 40.8125 23.484375 49.5625 23.375 49.75 C 7.28125 73.140625 9.421875 109.03125 21.4375 133.265625 C 21.4375 133.28125 21.4375 133.296875 21.4375 133.3125 C 21.75 133.96875 22.0625 134.546875 22.3125 135 C 22.4375 135.28125 22.578125 135.546875 22.71875 135.8125 C 23.015625 136.484375 23.234375 136.765625 23.265625 136.8125 C 23.453125 137.171875 23.640625 137.53125 23.78125 137.796875 C 23.796875 137.828125 23.828125 137.875 23.84375 137.90625 C 24.203125 138.484375 24.546875 139.125 24.9375 139.765625 C 24.9375 139.78125 24.953125 139.796875 24.96875 139.8125 C 25.140625 140.09375 25.359375 140.5 25.703125 141 C 26.140625 141.71875 26.546875 142.359375 26.84375 142.828125 C 26.859375 142.859375 26.875 142.875 26.875 142.890625 C 27.03125 143.125 27.21875 143.4375 27.453125 143.765625 C 27.46875 143.796875 27.484375 143.8125 27.5 143.828125 C 27.515625 143.859375 27.515625 143.875 27.546875 143.921875 C 28.09375 144.75 28.671875 145.609375 29.3125 146.5 C 29.375 146.578125 29.359375 146.546875 29.40625 146.625 C 29.453125 146.6875 29.453125 146.6875 29.484375 146.734375 C 29.5 146.75 29.53125 146.796875 29.546875 146.828125 L 29.5625 146.84375 C 29.59375 146.890625 29.71875 147.046875 29.71875 147.046875 C 29.71875 147.0625 29.734375 147.078125 29.75 147.078125 C 30.3125 147.859375 30.890625 148.65625 31.5 149.4375 C 31.734375 149.75 31.9375 150.015625 32.046875 150.15625 C 32.078125 150.203125 32.125 150.25 32.15625 150.3125 C 32.671875 150.921875 33.171875 151.546875 33.6875 152.1875 C 33.703125 152.21875 33.71875 152.234375 33.734375 152.25 C 33.890625 152.4375 34.09375 152.671875 34.3125 152.9375 C 34.984375 153.75 35.671875 154.53125 36.375 155.3125 C 36.4375 155.375 36.5 155.453125 36.5625 155.515625 L 36.53125 155.46875 C 36.734375 155.703125 37.09375 156.09375 37.453125 156.328125 L 36.703125 155.6875 C 37.4375 156.5 38.1875 157.296875 38.9375 158.09375 C 38.953125 158.109375 38.96875 158.109375 38.96875 158.125 C 39.234375 158.390625 39.5 158.65625 39.78125 158.9375 C 40.3125 159.46875 40.875 160.046875 41.53125 160.671875 C 41.78125 160.90625 42.03125 161.125 42.203125 161.3125 C 42.21875 161.328125 42.21875 161.328125 42.234375 161.328125 C 42.953125 162.015625 43.734375 162.75 44.5625 163.484375 C 44.640625 163.53125 44.6875 163.59375 44.75 163.640625 C 44.75 163.65625 44.75 163.65625 44.75 163.65625 C 44.96875 163.84375 45.09375 163.953125 45.0625 163.921875 C 45.109375 163.953125 45.140625 164 45.1875 164.03125 C 45.921875 164.671875 46.65625 165.296875 47.390625 165.921875 C 47.75 166.203125 48.0625 166.453125 48.328125 166.6875 C 48.34375 166.6875 48.34375 166.6875 48.359375 166.6875 C 49.015625 167.234375 49.640625 167.703125 50.234375 168.15625 C 50.234375 168.171875 50.25 168.171875 50.25 168.1875 C 50.546875 168.40625 50.859375 168.640625 51.203125 168.90625 C 51.21875 168.921875 51.234375 168.921875 51.25 168.9375 C 51.953125 169.46875 52.65625 169.96875 53.328125 170.453125 C 53.53125 170.609375 53.765625 170.765625 54.015625 170.9375 C 54 170.921875 54.09375 171 54.0625 170.984375 C 54.171875 171.0625 54.28125 171.140625 54.375 171.203125 C 55.03125 171.640625 55.671875 172.078125 56.34375 172.515625 C 56.34375 172.53125 56.359375 172.53125 56.359375 172.53125 C 56.65625 172.71875 56.921875 172.90625 57.1875 173.078125 C 57.203125 173.09375 57.21875 173.109375 57.25 173.125 C 58.3125 173.8125 59.359375 174.453125 60.390625 175.078125 C 60.453125 175.125 60.515625 175.15625 60.578125 175.1875 C 60.828125 175.328125 61.0625 175.453125 61.28125 175.578125 C 61.296875 175.59375 61.296875 175.59375 61.3125 175.609375 C 62.109375 176.0625 62.90625 176.53125 63.75 176.984375 L 63.671875 176.9375 C 64.234375 177.25 64.734375 177.484375 65.140625 177.6875 C 65.640625 177.96875 66.171875 178.265625 66.734375 178.546875 C 66.8125 178.59375 66.90625 178.640625 67 178.6875 C 67.296875 178.796875 67.296875 178.828125 66.984375 178.640625 C 67.09375 178.71875 67.203125 178.765625 67.3125 178.8125 C 67.359375 178.84375 67.53125 178.921875 67.828125 179.078125 C 67.84375 179.078125 67.84375 179.078125 67.859375 179.078125 C 68.78125 179.546875 69.6875 179.96875 70.625 180.375 C 70.84375 180.484375 70.984375 180.546875 70.9375 180.515625 C 71.03125 180.5625 71.109375 180.609375 71.1875 180.640625 C 72.234375 181.109375 73.296875 181.546875 74.375 181.984375 C 74.390625 181.984375 74.421875 182 74.4375 182 C 74.5 182.015625 74.8125 182.15625 75.125 182.265625 C 75.1875 182.296875 75.25 182.3125 75.3125 182.328125 C 75.34375 182.34375 75.328125 182.34375 75.359375 182.359375 C 76.21875 182.6875 77.078125 183.015625 77.9375 183.3125 C 78.171875 183.421875 78.375 183.484375 78.515625 183.546875 C 79.640625 183.921875 80.734375 184.28125 81.859375 184.625 C 81.890625 184.640625 81.921875 184.65625 81.96875 184.671875 C 82.03125 184.6875 82.328125 184.78125 82.65625 184.875 C 82.671875 184.875 82.6875 184.890625 82.703125 184.890625 C 82.78125 184.90625 82.765625 184.90625 82.84375 184.9375 C 83.796875 185.234375 84.921875 185.65625 86.390625 185.9375 C 86.40625 185.9375 86.40625 185.9375 86.421875 185.9375 C 94.140625 187.359375 101.3125 188 108 188 C 165.34375 188.015625 183.734375 141.421875 183.734375 141.421875 C 184.4375 139.5625 183.671875 137.46875 181.9375 136.5 C 180.203125 135.546875 178.015625 136 176.8125 137.578125 C 160.484375 159.046875 131.203125 163.390625 102.640625 156.828125 C 101.78125 156.625 100.765625 156.3125 99.59375 155.953125 C 99.578125 155.953125 99.546875 155.9375 99.53125 155.9375 C 99.328125 155.875 99.109375 155.8125 99 155.765625 C 98.9375 155.75 98.875 155.734375 98.8125 155.71875 C 97.8125 155.40625 96.796875 155.0625 95.78125 154.71875 C 95.765625 154.703125 95.734375 154.703125 95.703125 154.6875 C 95.640625 154.671875 95.578125 154.65625 95.53125 154.625 C 95.46875 154.609375 95.40625 154.578125 95.328125 154.5625 C 94.546875 154.28125 93.703125 153.96875 92.828125 153.625 L 92.6875 153.5625 C 92.34375 153.4375 92.046875 153.328125 91.921875 153.265625 C 90.984375 152.890625 90.015625 152.484375 89.0625 152.0625 C 88.96875 152.015625 88.890625 151.984375 88.8125 151.953125 C 88.828125 151.953125 88.625 151.875 88.5 151.828125 C 87.671875 151.4375 86.859375 151.046875 86.015625 150.640625 C 85.953125 150.625 85.90625 150.59375 85.84375 150.5625 C 85.796875 150.546875 85.65625 150.484375 85.375 150.328125 C 85.34375 150.3125 85.3125 150.296875 85.265625 150.28125 C 84.71875 150.015625 84.109375 149.703125 83.484375 149.359375 C 83.46875 149.34375 83.4375 149.328125 83.421875 149.3125 C 82.921875 149.0625 82.53125 148.875 82.25 148.703125 C 82.21875 148.703125 82.203125 148.6875 82.171875 148.671875 C 81.4375 148.28125 80.671875 147.828125 79.859375 147.375 L 80.171875 147.5625 C 79.640625 147.21875 79.265625 147.03125 79.046875 146.90625 L 79.171875 146.96875 C 78.15625 146.359375 77.15625 145.75 76.203125 145.140625 C 76.1875 145.125 76.171875 145.125 76.171875 145.109375 C 75.984375 145 75.765625 144.859375 75.5 144.671875 C 75.453125 144.625 75.390625 144.59375 75.34375 144.5625 C 74.6875 144.140625 74.015625 143.671875 73.3125 143.203125 L 73.265625 143.171875 C 73.125 143.0625 72.90625 142.90625 72.609375 142.6875 C 71.984375 142.25 71.359375 141.796875 70.71875 141.3125 L 70.6875 141.3125 C 70.65625 141.28125 70.640625 141.265625 70.609375 141.234375 C 70.359375 141.03125 70.078125 140.828125 69.796875 140.609375 C 69.171875 140.125 68.578125 139.671875 68.046875 139.234375 L 67.96875 139.1875 C 67.65625 138.921875 67.375 138.6875 67.171875 138.515625 C 67.171875 138.515625 67.15625 138.515625 67.140625 138.5 C 66.40625 137.90625 65.703125 137.28125 64.9375 136.625 L 65.265625 136.953125 C 64.625 136.234375 64.328125 136.140625 64.484375 136.25 L 64.703125 136.4375 C 63.9375 135.75 63.15625 135.015625 62.359375 134.265625 L 62.3125 134.234375 C 62.1875 134.109375 61.984375 133.90625 61.71875 133.65625 L 61.609375 133.546875 C 61.03125 132.984375 60.5 132.453125 60.015625 131.96875 C 60 131.953125 60 131.953125 59.984375 131.9375 C 59.765625 131.71875 59.5625 131.5 59.3125 131.25 C 58.625 130.5625 57.953125 129.828125 57.28125 129.078125 C 57.25 129.046875 57.203125 129 57.171875 128.953125 L 57.15625 128.953125 C 56.453125 128.1875 55.765625 127.390625 55.0625 126.5625 C 55.0625 126.546875 55.0625 126.53125 55.046875 126.515625 C 54.9375 126.390625 54.75 126.15625 54.453125 125.8125 C 53.96875 125.21875 53.484375 124.59375 52.953125 123.953125 L 52.9375 123.9375 C 52.765625 123.703125 52.578125 123.453125 52.46875 123.3125 L 52.453125 123.296875 C 51.859375 122.515625 51.296875 121.75 50.734375 120.96875 L 50.71875 120.953125 C 43.1875 110.578125 37.984375 93.796875 36.53125 77.640625 C 35.0625 61.5 37.578125 46 43.203125 38.375 C 44.109375 37.171875 44.25 35.5625 43.578125 34.21875 C 42.90625 32.859375 41.53125 32.015625 40.015625 32 Z M 112.8125 34.59375 C 113.03125 36.78125 112.796875 38.984375 113.328125 41.125 C 115.65625 50.390625 120.859375 59.140625 128.3125 64.9375 C 130.859375 66.90625 133.59375 68.609375 136.421875 70 C 136.4375 70.015625 136.453125 70.03125 136.46875 70.03125 C 137.96875 70.75 139.515625 71.40625 141.09375 71.984375 L 141.0625 71.96875 C 142.28125 72.421875 143.65625 72.890625 145.046875 73.234375 C 148.65625 74.125 152.140625 74.59375 155.515625 74.78125 C 153.140625 75.265625 151.15625 76.078125 148.125 75.984375 C 145.75 75.90625 143.125 75.609375 140.265625 75.046875 L 140.25 75.046875 C 140.0625 75.015625 139.578125 74.828125 138.75 74.578125 C 138.65625 74.546875 138.46875 74.484375 138.265625 74.421875 C 137.78125 74.25 137.390625 74.125 137.09375 74 C 137.0625 73.984375 137.046875 73.984375 137.015625 73.96875 C 127.140625 70.265625 118.59375 62.359375 114.46875 52.4375 C 112.796875 48.40625 111.953125 44.1875 112 40.046875 C 112.015625 38.1875 112.453125 36.390625 112.8125 34.59375 Z M 72.15625 45.875 C 71.140625 52.640625 71.15625 59.578125 73.203125 66.25 C 77.421875 80.15625 86.234375 92.296875 97.375 101.1875 C 97.609375 101.390625 97.84375 101.578125 98 101.71875 C 98.03125 101.734375 98.0625 101.765625 98.09375 101.78125 C 99.09375 102.5625 100.140625 103.359375 101.234375 104.125 C 101.25 104.140625 101.28125 104.15625 101.3125 104.171875 C 101.8125 104.515625 102.3125 104.84375 102.859375 105.1875 C 102.859375 105.203125 102.859375 105.203125 102.859375 105.203125 C 102.890625 105.21875 103.171875 105.4375 103.703125 105.75 C 104.453125 106.234375 105.203125 106.6875 105.828125 107.078125 C 105.859375 107.09375 105.875 107.109375 105.890625 107.125 C 106.171875 107.28125 106.359375 107.390625 106.4375 107.421875 C 107 107.765625 107.625 108.140625 108.375 108.53125 C 108.375 108.53125 108.375 108.53125 108.375 108.546875 C 108.671875 108.6875 108.96875 108.84375 109.265625 108.984375 C 109.75 109.234375 110.21875 109.484375 110.6875 109.734375 C 110.71875 109.75 110.75 109.765625 110.796875 109.78125 C 111.671875 110.21875 112.609375 110.65625 113.578125 111.078125 C 114.09375 111.34375 114.3125 111.421875 114.453125 111.46875 C 115.359375 111.875 116.21875 112.203125 117 112.515625 C 117.390625 112.671875 117.765625 112.8125 118.0625 112.9375 L 118.046875 112.921875 C 118.875 113.234375 119.6875 113.5 120.453125 113.75 C 120.6875 113.84375 121.015625 113.9375 121.375 114.046875 C 122.484375 114.421875 123.625 114.765625 124.78125 115.0625 C 139.78125 119.015625 154.078125 116.984375 166.15625 111.3125 C 158.8125 117.890625 148.15625 123.625 131.90625 123.984375 C 127.0625 124.09375 121.734375 123.71875 115.859375 122.734375 C 115.84375 122.71875 115.828125 122.71875 115.8125 122.71875 C 115.328125 122.640625 114.484375 122.328125 113.265625 121.9375 C 112.921875 121.84375 112.625 121.734375 112.3125 121.625 C 111.625 121.40625 110.921875 121.15625 110.234375 120.90625 L 110.203125 120.890625 C 110.03125 120.828125 109.6875 120.703125 109.28125 120.5625 L 109.1875 120.515625 C 109.15625 120.5 109.15625 120.5 109.125 120.5 C 108.46875 120.234375 107.78125 119.9375 107.0625 119.625 C 107.0625 119.625 107.0625 119.625 107.046875 119.625 C 106.84375 119.53125 106.640625 119.4375 106.40625 119.359375 C 105.46875 118.921875 104.578125 118.515625 103.75 118.09375 C 103.703125 118.078125 103.65625 118.0625 103.609375 118.046875 C 103.203125 117.8125 102.75 117.578125 102.265625 117.34375 L 102.21875 117.3125 C 102.1875 117.296875 102.171875 117.28125 102.140625 117.265625 C 101.953125 117.171875 101.75 117.0625 101.75 117.0625 C 101.65625 117 101.5625 116.953125 101.484375 116.90625 C 100.90625 116.609375 100.3125 116.265625 99.75 115.921875 C 99.640625 115.859375 99.546875 115.8125 99.4375 115.75 C 99.4375 115.75 99.34375 115.703125 99.296875 115.6875 C 98.609375 115.265625 97.953125 114.859375 97.28125 114.421875 C 97.265625 114.40625 97.25 114.390625 97.234375 114.375 C 97.171875 114.34375 96.96875 114.203125 96.625 113.984375 C 96.125 113.65625 95.71875 113.390625 95.40625 113.171875 C 95.3125 113.09375 95.203125 113.03125 95.09375 112.953125 C 95.09375 112.953125 95.078125 112.953125 95.0625 112.9375 C 94.15625 112.28125 93.265625 111.625 92.421875 110.953125 C 92.375 110.921875 92.328125 110.890625 92.296875 110.859375 C 92.28125 110.84375 92.046875 110.65625 91.75 110.421875 C 90.859375 109.71875 90.015625 109.015625 89.1875 108.28125 C 89.171875 108.265625 89.171875 108.265625 89.15625 108.25 C 89.125 108.21875 89.078125 108.1875 89.046875 108.15625 C 89.03125 108.140625 89 108.125 88.984375 108.109375 C 88.953125 108.078125 88.9375 108.0625 88.921875 108.046875 C 88.140625 107.34375 87.375 106.625 86.609375 105.875 L 86.5625 105.828125 C 86.359375 105.625 86.171875 105.4375 86 105.25 C 85.984375 105.25 85.984375 105.234375 85.96875 105.234375 C 85.140625 104.40625 84.390625 103.625 83.734375 102.859375 C 83.609375 102.71875 83.484375 102.59375 83.34375 102.484375 C 81.8125 101.140625 80.109375 98.609375 78.4375 96.171875 C 78.421875 96.15625 78.421875 96.15625 78.421875 96.140625 C 76.734375 93.734375 75.234375 91.1875 73.921875 88.546875 C 73.921875 88.53125 73.921875 88.53125 73.921875 88.515625 C 67.21875 75.28125 66.328125 59.265625 72.15625 45.875 Z M 29.078125 56.3125 C 28.1875 63.296875 27.875 70.703125 28.5625 78.375 C 30.125 95.671875 35.390625 113.453125 44.25 125.640625 C 44.859375 126.515625 45.484375 127.34375 46.125 128.1875 C 46.359375 128.5 46.515625 128.6875 46.5625 128.75 C 46.625 128.84375 46.6875 128.9375 46.765625 129.015625 C 47.265625 129.640625 47.78125 130.28125 48.3125 130.953125 C 48.359375 131 48.390625 131.03125 48.4375 131.078125 C 48.53125 131.1875 48.703125 131.421875 48.984375 131.75 C 49.703125 132.59375 50.453125 133.46875 51.234375 134.328125 C 51.265625 134.359375 51.296875 134.40625 51.328125 134.4375 C 52.0625 135.25 52.828125 136.0625 53.609375 136.859375 C 53.8125 137.0625 54.03125 137.296875 54.296875 137.5625 C 54.3125 137.578125 54.3125 137.578125 54.3125 137.578125 L 54.328125 137.59375 C 54.953125 138.21875 55.53125 138.796875 56.078125 139.328125 C 56.109375 139.359375 56.15625 139.40625 56.1875 139.4375 C 56.3125 139.546875 56.5 139.75 56.828125 140.0625 C 56.84375 140.078125 56.859375 140.078125 56.875 140.09375 C 57.671875 140.84375 58.5 141.625 59.359375 142.375 C 59.421875 142.453125 59.5 142.515625 59.578125 142.578125 C 59.90625 142.828125 59.828125 142.859375 59.328125 142.3125 C 59.4375 142.421875 59.546875 142.53125 59.65625 142.625 C 60.4375 143.328125 61.234375 144.015625 62.109375 144.71875 C 62.421875 144.96875 62.671875 145.171875 62.859375 145.328125 C 62.875 145.34375 62.90625 145.375 62.921875 145.390625 C 63.59375 145.9375 64.234375 146.421875 64.828125 146.890625 C 64.875 146.9375 64.921875 146.96875 64.953125 147 C 65.21875 147.171875 65.46875 147.375 65.75 147.578125 C 65.78125 147.625 65.8125 147.65625 65.859375 147.6875 C 66.5625 148.1875 67.25 148.703125 68 149.234375 C 68.15625 149.34375 68.390625 149.53125 68.6875 149.75 C 68.703125 149.75 68.71875 149.765625 68.75 149.765625 C 69.46875 150.265625 70.234375 150.796875 71.0625 151.3125 C 71.28125 151.46875 71.53125 151.65625 71.859375 151.859375 C 71.875 151.875 71.890625 151.875 71.890625 151.875 C 72.953125 152.5625 74.015625 153.21875 75.046875 153.828125 C 75.078125 153.84375 75.109375 153.875 75.15625 153.890625 C 75.5 154.078125 75.65625 154.171875 75.625 154.15625 C 75.71875 154.21875 75.828125 154.296875 75.9375 154.359375 C 76.6875 154.765625 77.46875 155.21875 78.296875 155.671875 L 78.3125 155.6875 C 78.328125 155.6875 78.34375 155.703125 78.375 155.703125 C 78.890625 156 79.359375 156.234375 79.75 156.4375 C 80.359375 156.765625 81.015625 157.109375 81.703125 157.4375 C 81.71875 157.453125 81.765625 157.46875 81.765625 157.484375 C 81.796875 157.484375 81.796875 157.484375 81.8125 157.5 C 82.046875 157.609375 82.3125 157.765625 82.734375 157.9375 C 83.515625 158.328125 84.3125 158.703125 85.140625 159.078125 C 85.203125 159.109375 85.265625 159.140625 85.328125 159.171875 C 85.34375 159.171875 85.609375 159.28125 85.8125 159.375 C 86.8125 159.8125 87.875 160.265625 88.984375 160.703125 C 88.984375 160.71875 89 160.71875 89 160.71875 C 89.359375 160.859375 89.578125 160.9375 89.625 160.953125 C 89.6875 160.984375 89.734375 161 89.796875 161.015625 C 90.71875 161.390625 91.6875 161.765625 92.71875 162.125 C 92.890625 162.1875 93.078125 162.25 93.25 162.3125 C 94.234375 162.65625 95.25 162.984375 96.296875 163.3125 C 96.703125 163.453125 97.0625 163.546875 97.375 163.640625 C 98.40625 163.953125 99.546875 164.328125 100.859375 164.625 C 122.03125 169.5 144.1875 168.265625 162.1875 159.109375 C 151.78125 169.53125 134.71875 180 108 180 C 101.828125 180 95.140625 179.40625 87.875 178.0625 C 87.15625 177.921875 86.234375 177.609375 85 177.234375 C 84.9375 177.203125 84.875 177.1875 84.8125 177.171875 C 84.796875 177.171875 84.546875 177.09375 84.25 177 L 84.125 176.96875 C 83.125 176.65625 82.140625 176.328125 81.140625 175.984375 C 81.109375 175.96875 81.09375 175.96875 81.0625 175.953125 C 80.953125 175.921875 80.984375 175.9375 81.015625 175.9375 C 80.96875 175.921875 80.90625 175.890625 80.859375 175.875 C 79.90625 175.53125 78.953125 175.171875 78.0625 174.828125 C 78 174.796875 77.921875 174.78125 77.84375 174.75 C 77.875 174.765625 77.65625 174.671875 77.328125 174.546875 L 77.265625 174.515625 C 76.296875 174.125 75.359375 173.734375 74.40625 173.3125 C 74.21875 173.234375 73.96875 173.109375 73.9375 173.109375 C 73.921875 173.09375 73.90625 173.078125 73.890625 173.078125 C 73.015625 172.6875 72.203125 172.3125 71.421875 171.921875 L 71.390625 171.921875 C 71.328125 171.875 71.09375 171.765625 70.9375 171.6875 C 70.578125 171.484375 70.53125 171.484375 70.40625 171.4375 L 70.34375 171.421875 C 69.84375 171.15625 69.34375 170.890625 68.859375 170.625 C 68.8125 170.59375 68.765625 170.5625 68.71875 170.546875 C 68.25 170.3125 67.890625 170.125 67.609375 169.96875 C 67.59375 169.953125 67.5625 169.9375 67.546875 169.9375 C 66.828125 169.546875 66.109375 169.140625 65.390625 168.71875 L 65.359375 168.703125 C 65.046875 168.515625 64.75 168.34375 64.4375 168.1875 L 64.359375 168.125 C 63.421875 167.5625 62.5 166.984375 61.578125 166.390625 C 61.3125 166.203125 61.046875 166.046875 60.78125 165.875 L 60.765625 165.859375 C 60.765625 165.859375 60.765625 165.859375 60.75 165.859375 C 60.140625 165.4375 59.546875 165.03125 58.90625 164.609375 C 58.8125 164.53125 58.703125 164.453125 58.59375 164.375 C 58.4375 164.28125 58.25 164.140625 58.03125 163.984375 C 58.015625 163.96875 58 163.953125 57.984375 163.9375 C 57.328125 163.484375 56.6875 163.015625 56.078125 162.5625 L 56.0625 162.546875 L 56.046875 162.546875 C 55.75 162.3125 55.453125 162.078125 55.125 161.828125 L 55.109375 161.8125 C 54.484375 161.34375 53.90625 160.90625 53.375 160.46875 L 53.359375 160.453125 C 53.046875 160.203125 52.78125 160 52.5625 159.8125 C 52.5625 159.796875 52.546875 159.796875 52.546875 159.796875 C 51.828125 159.1875 51.125 158.578125 50.421875 157.984375 C 50.328125 157.890625 50.25 157.828125 50.1875 157.796875 C 50.125 157.71875 50.046875 157.65625 49.984375 157.59375 C 49.265625 156.984375 48.53125 156.28125 47.765625 155.5625 L 47.75 155.53125 C 47.484375 155.28125 47.25 155.078125 47.046875 154.875 C 47.03125 154.859375 47.015625 154.84375 47 154.828125 C 46.5 154.359375 45.984375 153.8125 45.40625 153.234375 C 45.375 153.203125 45.34375 153.171875 45.3125 153.125 C 45.09375 152.921875 44.90625 152.75 44.71875 152.5625 C 44.015625 151.8125 43.328125 151.078125 42.640625 150.328125 C 42.625 150.3125 42.609375 150.296875 42.609375 150.296875 C 42.578125 150.25 42.546875 150.21875 42.5 150.1875 C 41.8125 149.40625 41.140625 148.640625 40.5 147.859375 C 40.46875 147.828125 40.4375 147.796875 40.40625 147.75 C 40.28125 147.609375 40.109375 147.40625 39.921875 147.1875 L 39.90625 147.171875 C 39.90625 147.15625 39.890625 147.140625 39.875 147.125 C 39.390625 146.515625 38.875 145.875 38.34375 145.234375 C 38.15625 144.984375 37.984375 144.75 37.90625 144.625 C 37.859375 144.578125 37.828125 144.53125 37.796875 144.5 C 37.28125 143.828125 36.765625 143.15625 36.25 142.4375 L 36.21875 142.390625 C 36.078125 142.1875 35.984375 142.078125 36.03125 142.140625 C 36 142.09375 35.96875 142.046875 35.9375 142 C 35.90625 141.953125 35.875 141.921875 35.84375 141.875 C 35.828125 141.859375 35.8125 141.828125 35.796875 141.8125 C 35.796875 141.8125 35.796875 141.8125 35.78125 141.8125 C 35.25 141.0625 34.71875 140.265625 34.15625 139.421875 C 34.140625 139.375 34.109375 139.328125 34.0625 139.28125 C 33.96875 139.140625 33.84375 138.9375 33.6875 138.6875 L 33.640625 138.625 C 33.171875 137.859375 32.75 137.234375 32.46875 136.75 C 32.4375 136.6875 32.390625 136.609375 32.34375 136.546875 C 32.21875 136.359375 32.0625 136.078125 31.828125 135.703125 L 31.8125 135.671875 C 31.484375 135.125 31.140625 134.546875 30.78125 133.9375 L 30.78125 133.90625 C 30.75 133.875 30.75 133.859375 30.71875 133.828125 C 30.5625 133.515625 30.421875 133.25 30.3125 133.03125 C 30.265625 132.9375 30.21875 132.859375 30.15625 132.765625 C 29.984375 132.453125 29.921875 132.3125 30.0625 132.609375 C 30 132.46875 29.9375 132.34375 29.875 132.234375 C 29.734375 131.984375 29.59375 131.75 29.5 131.5 C 29.46875 131.4375 29.4375 131.375 29.40625 131.3125 C 29.09375 130.71875 28.84375 130.25 28.65625 129.875 C 28.640625 129.828125 28.625 129.78125 28.609375 129.75 C 18.1875 108.734375 16.71875 76.34375 29.078125 56.3125 Z M 89.265625 108.421875 L 89.3125 108.4375 C 89.375 108.53125 89.359375 108.5 89.4375 108.625 C 89.390625 108.546875 89.328125 108.484375 89.265625 108.421875 Z M 42.671875 150.421875 C 42.671875 150.421875 42.71875 150.46875 42.734375 150.484375 C 42.78125 150.53125 42.765625 150.515625 42.8125 150.578125 L 42.828125 150.59375 L 42.828125 150.609375 C 42.859375 150.625 42.875 150.671875 42.890625 150.703125 C 42.765625 150.53125 42.71875 150.46875 42.671875 150.421875 Z M 58.984375 164.6875 L 59.125 164.765625 C 58.84375 164.5625 58.859375 164.546875 59.125 164.796875 C 59.078125 164.75 59.03125 164.71875 58.984375 164.6875 Z M 58.984375 164.6875 "/>
</g>
</svg>
