<?xml version="1.0" encoding="UTF-8"?>
<svg xmlns="http://www.w3.org/2000/svg" xmlns:xlink="http://www.w3.org/1999/xlink" width="200pt" height="200pt" viewBox="0 0 200 200" version="1.1">
<g id="surface1895">
<path style=" stroke:none;fill-rule:nonzero;fill:rgb(100%,100%,100%);fill-opacity:1;" d="M 21.875 25 C 16.695312 25 12.5 29.195312 12.5 34.375 L 12.5 165.625 C 12.5 170.804688 16.695312 175 21.875 175 L 178.125 175 C 183.304688 175 187.5 170.804688 187.5 165.625 L 187.5 34.375 C 187.5 29.195312 183.304688 25 178.125 25 Z M 21.875 31.25 L 178.125 31.25 C 179.851562 31.25 181.25 32.648438 181.25 34.375 L 181.25 165.625 C 181.25 167.351562 179.851562 168.75 178.125 168.75 L 21.875 168.75 C 20.148438 168.75 18.75 167.351562 18.75 165.625 L 18.75 62.5 L 146.875 62.5 C 148.601562 62.5 150 61.101562 150 59.375 C 150 57.648438 148.601562 56.25 146.875 56.25 L 18.75 56.25 L 18.75 34.375 C 18.75 32.648438 20.148438 31.25 21.875 31.25 Z M 31.25 37.5 C 29.523438 37.5 28.125 38.898438 28.125 40.625 L 28.125 46.875 C 28.125 48.601562 29.523438 50 31.25 50 C 32.976562 50 34.375 48.601562 34.375 46.875 L 34.375 40.625 C 34.375 38.898438 32.976562 37.5 31.25 37.5 Z M 46.875 37.5 C 45.148438 37.5 43.75 38.898438 43.75 40.625 L 43.75 46.875 C 43.75 48.601562 45.148438 50 46.875 50 C 48.601562 50 50 48.601562 50 46.875 L 50 40.625 C 50 38.898438 48.601562 37.5 46.875 37.5 Z M 62.5 37.5 C 60.773438 37.5 59.375 38.898438 59.375 40.625 L 59.375 46.875 C 59.375 48.601562 60.773438 50 62.5 50 C 64.226562 50 65.625 48.601562 65.625 46.875 L 65.625 40.625 C 65.625 38.898438 64.226562 37.5 62.5 37.5 Z M 78.125 37.5 C 76.398438 37.5 75 38.898438 75 40.625 L 75 46.875 C 75 48.601562 76.398438 50 78.125 50 C 79.851562 50 81.25 48.601562 81.25 46.875 L 81.25 40.625 C 81.25 38.898438 79.851562 37.5 78.125 37.5 Z M 93.75 37.5 C 92.023438 37.5 90.625 38.898438 90.625 40.625 L 90.625 46.875 C 90.625 48.601562 92.023438 50 93.75 50 C 95.476562 50 96.875 48.601562 96.875 46.875 L 96.875 40.625 C 96.875 38.898438 95.476562 37.5 93.75 37.5 Z M 109.375 37.5 C 107.648438 37.5 106.25 38.898438 106.25 40.625 L 106.25 46.875 C 106.25 48.601562 107.648438 50 109.375 50 C 111.101562 50 112.5 48.601562 112.5 46.875 L 112.5 40.625 C 112.5 38.898438 111.101562 37.5 109.375 37.5 Z M 125 37.5 C 123.273438 37.5 121.875 38.898438 121.875 40.625 L 121.875 46.875 C 121.875 48.601562 123.273438 50 125 50 C 126.726562 50 128.125 48.601562 128.125 46.875 L 128.125 40.625 C 128.125 38.898438 126.726562 37.5 125 37.5 Z M 140.625 37.5 C 138.898438 37.5 137.5 38.898438 137.5 40.625 L 137.5 46.875 C 137.5 48.601562 138.898438 50 140.625 50 C 142.351562 50 143.75 48.601562 143.75 46.875 L 143.75 40.625 C 143.75 38.898438 142.351562 37.5 140.625 37.5 Z M 156.25 37.5 C 154.523438 37.5 153.125 38.898438 153.125 40.625 L 153.125 46.875 C 153.125 48.601562 154.523438 50 156.25 50 C 157.976562 50 159.375 48.601562 159.375 46.875 L 159.375 40.625 C 159.375 38.898438 157.976562 37.5 156.25 37.5 Z M 171.875 37.5 C 170.148438 37.5 168.75 38.898438 168.75 40.625 L 168.75 46.875 C 168.75 48.601562 170.148438 50 171.875 50 C 173.601562 50 175 48.601562 175 46.875 L 175 40.625 C 175 38.898438 173.601562 37.5 171.875 37.5 Z M 159.375 56.25 C 157.648438 56.25 156.25 57.648438 156.25 59.375 C 156.25 61.101562 157.648438 62.5 159.375 62.5 L 171.875 62.5 C 173.601562 62.5 175 61.101562 175 59.375 C 175 57.648438 173.601562 56.25 171.875 56.25 Z M 40.625 75 C 38.898438 75 37.5 76.398438 37.5 78.125 L 37.5 90.625 C 37.5 92.351562 38.898438 93.75 40.625 93.75 L 159.375 93.75 C 161.101562 93.75 162.5 92.351562 162.5 90.625 L 162.5 78.125 C 162.5 76.398438 161.101562 75 159.375 75 Z M 43.75 81.25 L 156.25 81.25 L 156.25 87.5 L 43.75 87.5 Z M 43.75 106.25 C 40.304688 106.25 37.5 109.054688 37.5 112.5 L 37.5 118.75 C 37.5 122.195312 40.304688 125 43.75 125 L 87.5 125 C 90.945312 125 93.75 122.195312 93.75 118.75 L 93.75 112.5 C 93.75 109.054688 90.945312 106.25 87.5 106.25 Z M 109.375 106.25 C 107.648438 106.25 106.25 107.648438 106.25 109.375 L 106.25 146.875 C 106.25 148.601562 107.648438 150 109.375 150 L 159.375 150 C 161.101562 150 162.5 148.601562 162.5 146.875 L 162.5 109.375 C 162.5 107.648438 161.101562 106.25 159.375 106.25 Z M 43.75 112.5 L 87.5 112.5 L 87.507812 118.75 L 43.75 118.75 Z M 112.5 112.5 L 156.25 112.5 L 156.25 143.75 L 112.5 143.75 Z M 43.75 131.25 C 40.304688 131.25 37.5 134.054688 37.5 137.5 L 37.5 143.75 C 37.5 147.195312 40.304688 150 43.75 150 L 87.5 150 C 90.945312 150 93.75 147.195312 93.75 143.75 L 93.75 137.5 C 93.75 134.054688 90.945312 131.25 87.5 131.25 Z M 43.75 137.5 L 87.5 137.5 L 87.507812 143.75 L 43.75 143.75 Z M 43.75 137.5 "/>
</g>
</svg>
