<?xml version="1.0" encoding="UTF-8"?>
<svg xmlns="http://www.w3.org/2000/svg" xmlns:xlink="http://www.w3.org/1999/xlink" width="200pt" height="200pt" viewBox="0 0 200 200" version="1.1">
<g id="surface1857">
<path style=" stroke:none;fill-rule:nonzero;fill:rgb(100%,100%,100%);fill-opacity:1;" d="M 47.789062 32 C 47.617188 32.007812 47.449219 32.027344 47.28125 32.054688 L 3.28125 40.0625 C 2.03125 40.289062 0.960938 41.097656 0.402344 42.242188 C -0.15625 43.382812 -0.136719 44.726562 0.453125 45.851562 L 48.453125 137.851562 C 49.328125 139.523438 51.253906 140.359375 53.070312 139.851562 L 96.265625 127.851562 L 120.53125 169.992188 C 121.503906 171.6875 123.558594 172.429688 125.390625 171.75 L 193.414062 146.609375 C 194.566406 146.183594 195.460938 145.25 195.835938 144.078125 C 196.210938 142.90625 196.027344 141.628906 195.335938 140.609375 L 172.359375 106.71875 L 197.070312 99.851562 C 198.316406 99.507812 199.320312 98.578125 199.761719 97.363281 C 200.203125 96.148438 200.03125 94.792969 199.296875 93.726562 L 177.304688 61.828125 C 176.347656 60.441406 174.621094 59.804688 172.992188 60.234375 L 142.984375 68.132812 C 141.730469 68.460938 140.714844 69.378906 140.257812 70.59375 C 139.800781 71.808594 139.960938 73.167969 140.6875 74.242188 L 159.5 101.992188 L 100.109375 118.484375 L 51.460938 34 C 50.710938 32.695312 49.292969 31.921875 47.789062 32 Z M 45.9375 40.429688 L 92.148438 120.695312 L 54.046875 131.28125 L 10.0625 46.960938 Z M 172.3125 68.679688 L 189.515625 93.648438 L 167.632812 99.734375 L 150.476562 74.429688 Z M 164.226562 108.976562 L 185.851562 140.875 L 125.78125 163.078125 L 104.226562 125.640625 Z M 164.226562 108.976562 "/>
</g>
</svg>
