<?xml version="1.0" encoding="UTF-8"?>
<svg xmlns="http://www.w3.org/2000/svg" xmlns:xlink="http://www.w3.org/1999/xlink" width="200pt" height="200pt" viewBox="0 0 200 200" version="1.1">
<g id="surface1915">
<path style=" stroke:none;fill-rule:nonzero;fill:rgb(100%,100%,100%);fill-opacity:1;" d="M 100 9.375 C 67.988281 9.375 56.25 25.117188 56.25 36.761719 L 56.25 56.25 L 96.875 56.25 L 96.875 62.5 L 36.761719 62.5 C 29.84375 62.5 22.742188 65.121094 17.609375 71.265625 C 12.472656 77.40625 9.375 86.785156 9.375 100 C 9.375 113.214844 12.472656 122.59375 17.609375 128.734375 C 22.742188 134.878906 29.84375 137.5 36.761719 137.5 L 56.25 137.5 L 56.25 163.238281 C 56.25 174.882812 67.988281 190.625 100 190.625 C 132.011719 190.625 143.75 174.882812 143.75 163.238281 L 143.75 143.75 L 103.125 143.75 L 103.125 137.5 L 163.238281 137.5 C 170.15625 137.5 177.257812 134.878906 182.390625 128.734375 C 187.527344 122.59375 190.625 113.214844 190.625 100 C 190.625 86.785156 187.527344 77.40625 182.390625 71.265625 C 177.257812 65.121094 170.15625 62.5 163.238281 62.5 L 143.757812 62.5 L 143.757812 36.761719 C 143.753906 30.785156 140.828125 23.785156 133.851562 18.425781 C 126.871094 13.066406 115.992188 9.375 100 9.375 Z M 100 15.625 C 115.03125 15.625 124.460938 19.097656 130.042969 23.382812 C 135.621094 27.667969 137.503906 32.796875 137.507812 36.761719 L 137.507812 62.5 L 137.5 62.5 L 137.5 84.089844 C 137.5 86.652344 136.578125 89.097656 135.046875 91.144531 C 133.003906 93.875 129.890625 95.902344 126.472656 96.605469 C 125.617188 96.78125 124.746094 96.875 123.863281 96.875 L 76.136719 96.875 C 65.679688 96.875 56.25 105.253906 56.25 115.910156 L 56.25 131.25 L 36.761719 131.25 C 31.347656 131.25 26.320312 129.40625 22.40625 124.726562 C 18.492188 120.042969 15.625 112.238281 15.625 100 C 15.625 87.761719 18.492188 79.957031 22.40625 75.273438 C 26.320312 70.59375 31.347656 68.75 36.761719 68.75 L 103.125 68.75 L 103.125 50 L 62.5 50 L 62.5 36.761719 C 62.5 29.308594 69.964844 15.625 100 15.625 Z M 82.8125 28.125 C 78.496094 28.125 75 31.621094 75 35.9375 C 75 40.253906 78.496094 43.75 82.8125 43.75 C 87.128906 43.75 90.625 40.253906 90.625 35.9375 C 90.625 31.621094 87.128906 28.125 82.8125 28.125 Z M 143.757812 68.75 L 163.238281 68.75 C 168.652344 68.75 173.679688 70.59375 177.59375 75.273438 C 181.507812 79.957031 184.375 87.761719 184.375 100 C 184.375 112.238281 181.507812 120.042969 177.59375 124.726562 C 173.679688 129.40625 168.652344 131.25 163.238281 131.25 L 96.875 131.25 L 96.875 150 L 137.5 150 L 137.5 163.238281 C 137.5 170.691406 130.035156 184.375 100 184.375 C 69.964844 184.375 62.5 170.691406 62.5 163.238281 L 62.5 115.910156 C 62.5 115.054688 62.605469 114.214844 62.800781 113.398438 C 64.15625 107.675781 69.96875 103.125 76.136719 103.125 L 123.863281 103.125 C 124.519531 103.125 125.167969 103.089844 125.8125 103.027344 C 129.671875 102.644531 133.308594 101.132812 136.292969 98.820312 L 136.296875 98.820312 C 136.792969 98.4375 137.269531 98.027344 137.726562 97.601562 L 137.730469 97.601562 C 141.398438 94.175781 143.757812 89.417969 143.757812 84.089844 Z M 48.863281 75.214844 C 47.140625 75.242188 45.765625 76.65625 45.789062 78.382812 L 45.789062 84.632812 C 45.773438 85.757812 46.363281 86.804688 47.339844 87.375 C 48.3125 87.941406 49.515625 87.941406 50.488281 87.375 C 51.460938 86.804688 52.054688 85.757812 52.039062 84.632812 L 52.039062 78.382812 C 52.050781 77.535156 51.71875 76.722656 51.121094 76.125 C 50.523438 75.53125 49.710938 75.199219 48.863281 75.214844 Z M 63.128906 75.214844 C 61.40625 75.242188 60.027344 76.65625 60.050781 78.382812 L 60.050781 84.632812 C 60.035156 85.757812 60.628906 86.804688 61.601562 87.375 C 62.574219 87.941406 63.78125 87.941406 64.753906 87.375 C 65.726562 86.804688 66.320312 85.757812 66.300781 84.632812 L 66.300781 78.382812 C 66.3125 77.535156 65.984375 76.722656 65.386719 76.125 C 64.789062 75.53125 63.972656 75.199219 63.128906 75.214844 Z M 77.398438 75.214844 C 75.675781 75.242188 74.300781 76.65625 74.324219 78.382812 L 74.324219 84.632812 C 74.304688 85.757812 74.898438 86.804688 75.871094 87.375 C 76.84375 87.941406 78.050781 87.941406 79.023438 87.375 C 79.996094 86.804688 80.589844 85.757812 80.574219 84.632812 L 80.574219 78.382812 C 80.585938 77.535156 80.253906 76.722656 79.65625 76.125 C 79.058594 75.53125 78.242188 75.199219 77.398438 75.214844 Z M 91.664062 75.214844 C 89.9375 75.242188 88.5625 76.65625 88.585938 78.382812 L 88.585938 84.632812 C 88.570312 85.757812 89.164062 86.804688 90.136719 87.375 C 91.109375 87.941406 92.3125 87.941406 93.285156 87.375 C 94.261719 86.804688 94.851562 85.757812 94.835938 84.632812 L 94.835938 78.382812 C 94.847656 77.535156 94.515625 76.722656 93.917969 76.125 C 93.320312 75.53125 92.507812 75.199219 91.664062 75.214844 Z M 117.613281 112.457031 C 115.890625 112.484375 114.515625 113.902344 114.539062 115.625 L 114.539062 121.875 C 114.523438 123.003906 115.113281 124.050781 116.089844 124.617188 C 117.0625 125.1875 118.265625 125.1875 119.238281 124.617188 C 120.210938 124.050781 120.804688 123.003906 120.789062 121.875 L 120.789062 115.625 C 120.800781 114.78125 120.46875 113.96875 119.871094 113.371094 C 119.273438 112.773438 118.460938 112.445312 117.613281 112.457031 Z M 131.878906 112.457031 C 130.15625 112.484375 128.777344 113.902344 128.800781 115.625 L 128.800781 121.875 C 128.785156 123.003906 129.378906 124.050781 130.351562 124.617188 C 131.324219 125.1875 132.53125 125.1875 133.503906 124.617188 C 134.476562 124.050781 135.070312 123.003906 135.050781 121.875 L 135.050781 115.625 C 135.0625 114.78125 134.734375 113.96875 134.136719 113.371094 C 133.539062 112.773438 132.722656 112.445312 131.878906 112.457031 Z M 146.148438 112.457031 C 144.425781 112.484375 143.050781 113.902344 143.074219 115.625 L 143.074219 121.875 C 143.054688 123.003906 143.648438 124.050781 144.621094 124.617188 C 145.59375 125.1875 146.800781 125.1875 147.773438 124.617188 C 148.746094 124.050781 149.339844 123.003906 149.324219 121.875 L 149.324219 115.625 C 149.335938 114.78125 149.003906 113.96875 148.40625 113.371094 C 147.808594 112.773438 146.992188 112.445312 146.148438 112.457031 Z M 160.414062 112.457031 C 158.6875 112.484375 157.3125 113.902344 157.335938 115.625 L 157.335938 121.875 C 157.320312 123.003906 157.914062 124.050781 158.886719 124.617188 C 159.859375 125.1875 161.0625 125.1875 162.035156 124.617188 C 163.011719 124.050781 163.601562 123.003906 163.585938 121.875 L 163.585938 115.625 C 163.597656 114.78125 163.265625 113.96875 162.667969 113.371094 C 162.070312 112.773438 161.257812 112.445312 160.414062 112.457031 Z M 120.3125 156.25 C 115.996094 156.25 112.5 159.746094 112.5 164.0625 C 112.5 168.378906 115.996094 171.875 120.3125 171.875 C 124.628906 171.875 128.125 168.378906 128.125 164.0625 C 128.125 159.746094 124.628906 156.25 120.3125 156.25 Z M 120.3125 156.25 "/>
</g>
</svg>
