<?xml version="1.0" encoding="UTF-8"?>
<svg xmlns="http://www.w3.org/2000/svg" xmlns:xlink="http://www.w3.org/1999/xlink" width="200pt" height="200pt" viewBox="0 0 200 200" version="1.1">
<g id="surface1904">
<path style=" stroke:none;fill-rule:nonzero;fill:rgb(100%,100%,100%);fill-opacity:1;" d="M 100 16.667969 C 81.636719 16.667969 66.667969 31.636719 66.667969 50 L 66.667969 66.667969 L 58.332031 66.667969 C 49.222656 66.667969 41.667969 74.222656 41.667969 83.332031 L 41.667969 133.332031 C 41.667969 142.441406 49.222656 150 58.332031 150 L 91.667969 150 L 91.667969 166.667969 L 16.667969 166.667969 L 16.667969 183.332031 L 183.332031 183.332031 L 183.332031 166.667969 L 108.332031 166.667969 L 108.332031 150 L 141.667969 150 C 150.777344 150 158.332031 142.441406 158.332031 133.332031 L 158.332031 83.332031 C 158.332031 74.222656 150.777344 66.667969 141.667969 66.667969 L 133.332031 66.667969 L 133.332031 50 C 133.332031 31.636719 118.363281 16.667969 100 16.667969 Z M 100 33.332031 C 109.636719 33.332031 116.667969 40.363281 116.667969 50 L 116.667969 66.667969 L 83.332031 66.667969 L 83.332031 50 C 83.332031 40.363281 90.363281 33.332031 100 33.332031 Z M 58.332031 83.332031 L 141.667969 83.332031 L 141.667969 133.332031 L 58.332031 133.332031 Z M 100 100 C 95.417969 100 91.667969 103.75 91.667969 108.332031 C 91.667969 112.917969 95.417969 116.667969 100 116.667969 C 104.582031 116.667969 108.332031 112.917969 108.332031 108.332031 C 108.332031 103.75 104.582031 100 100 100 Z M 100 100 "/>
</g>
</svg>
