<?xml version="1.0" encoding="UTF-8"?>
<svg xmlns="http://www.w3.org/2000/svg" xmlns:xlink="http://www.w3.org/1999/xlink" width="100pt" height="100pt" viewBox="0 0 100 100" version="1.1">
<g id="surface91">
<path style=" stroke:none;fill-rule:nonzero;fill:rgb(90.588235%,29.803922%,23.529412%);fill-opacity:1;" d="M 9.6875 12 C 6.539062 12 4 14.640625 4 17.78125 L 4 86 C 4 87.101562 4.898438 88 6 88 L 94 88 C 95.101562 88 96 87.101562 96 86 L 96 17.78125 C 96 14.640625 93.460938 12 90.3125 12 Z M 9.6875 16 L 90.3125 16 C 91.242188 16 92 16.75 92 17.78125 L 92 36 L 8 36 L 8 17.78125 C 8 16.75 8.757812 16 9.6875 16 Z M 38 20 L 38 32 L 86 32 L 86 20 Z M 16 22 C 13.789062 22 12 23.789062 12 26 C 12 28.210938 13.789062 30 16 30 C 18.210938 30 20 28.210938 20 26 C 20 23.789062 18.210938 22 16 22 Z M 28 22 C 25.789062 22 24 23.789062 24 26 C 24 28.210938 25.789062 30 28 30 C 30.210938 30 32 28.210938 32 26 C 32 23.789062 30.210938 22 28 22 Z M 42 24 L 82 24 L 82 28 L 42 28 Z M 8 40 L 92 40 L 92 84 L 8 84 Z M 14 46 L 14 60 L 58 60 L 58 46 Z M 64 46 L 64 78 L 86 78 L 86 46 Z M 18 50 L 54 50 L 54 56 L 18 56 Z M 68 50 L 82 50 L 82 74 L 68 74 Z M 14 64 L 14 78 L 58 78 L 58 64 Z M 18 68 L 54 68 L 54 74 L 18 74 Z M 18 68 "/>
</g>
</svg>
