<?xml version="1.0" encoding="UTF-8"?>
<svg xmlns="http://www.w3.org/2000/svg" xmlns:xlink="http://www.w3.org/1999/xlink" width="100pt" height="100pt" viewBox="0 0 100 100" version="1.1">
<g id="surface6460">
<path style=" stroke:none;fill-rule:nonzero;fill:rgb(90.588235%,29.803922%,23.529412%);fill-opacity:1;" d="M 55.078125 9.375 C 59.460938 19.714844 39.367188 26.050781 37.5 34.667969 C 35.792969 42.578125 49.402344 51.855469 49.414062 51.855469 C 47.339844 48.585938 45.824219 45.824219 43.75 40.722656 C 40.234375 32.105469 65.171875 24.328125 55.078125 9.375 Z M 68.359375 23.730469 C 68.359375 23.730469 50.792969 24.839844 49.902344 36.328125 C 49.5 41.441406 54.542969 44.128906 54.6875 47.851562 C 54.808594 50.890625 51.660156 53.417969 51.660156 53.417969 C 51.660156 53.417969 57.3125 52.394531 59.082031 47.753906 C 61.035156 42.601562 55.273438 39.085938 55.859375 34.960938 C 56.421875 31.019531 68.359375 23.730469 68.359375 23.730469 Z M 72.65625 50.195312 C 70.8125 50.109375 68.738281 50.792969 66.894531 52.148438 C 70.53125 51.34375 73.632812 53.625 73.632812 56.25 C 73.632812 62.132812 65.234375 67.675781 65.234375 67.675781 C 65.234375 67.675781 78.222656 66.222656 78.222656 56.542969 C 78.222656 52.550781 75.71875 50.339844 72.65625 50.195312 Z M 38.183594 50.292969 C 33.65625 50.453125 24.609375 51.195312 24.609375 54.6875 C 24.609375 59.546875 45.679688 59.925781 60.742188 56.933594 C 60.742188 56.933594 64.84375 54.078125 65.917969 53.027344 C 56.042969 55.078125 33.496094 55.394531 33.496094 53.613281 C 33.496094 51.976562 40.722656 50.292969 40.722656 50.292969 C 40.722656 50.292969 39.699219 50.242188 38.183594 50.292969 Z M 36.816406 59.277344 C 34.339844 59.277344 30.664062 61.207031 30.664062 63.085938 C 30.664062 66.871094 49.316406 69.773438 63.085938 64.257812 L 58.300781 61.328125 C 48.960938 64.378906 31.714844 63.367188 36.816406 59.277344 Z M 39.160156 67.773438 C 35.777344 67.773438 33.59375 69.910156 33.59375 71.484375 C 33.59375 76.332031 53.796875 76.804688 61.816406 71.875 L 56.738281 68.554688 C 50.757812 71.128906 35.707031 71.507812 39.160156 67.773438 Z M 27.832031 72.167969 C 22.316406 72.058594 18.75 74.558594 18.75 76.660156 C 18.75 87.828125 75.292969 87.292969 75.292969 75.878906 C 75.292969 73.988281 73.058594 73.082031 72.265625 72.65625 C 76.878906 83.570312 26.074219 82.714844 26.074219 76.269531 C 26.074219 74.804688 29.835938 73.339844 33.300781 74.023438 L 30.371094 72.363281 C 29.503906 72.230469 28.625 72.179688 27.832031 72.167969 Z M 81.25 79.6875 C 72.65625 88 50.902344 90.980469 29.003906 85.839844 C 50.902344 94.996094 81.140625 89.90625 81.25 79.6875 Z M 81.25 79.6875 "/>
</g>
</svg>
