<?xml version="1.0" encoding="UTF-8"?>
<svg xmlns="http://www.w3.org/2000/svg" xmlns:xlink="http://www.w3.org/1999/xlink" width="100pt" height="100pt" viewBox="0 0 100 100" version="1.1">
<g id="surface6431">
<path style=" stroke:none;fill-rule:nonzero;fill:rgb(90.588235%,29.803922%,23.529412%);fill-opacity:1;" d="M 50 4.6875 C 33.996094 4.6875 28.125 12.558594 28.125 18.378906 L 28.125 28.125 L 48.4375 28.125 L 48.4375 31.25 L 18.378906 31.25 C 14.921875 31.25 11.371094 32.5625 8.804688 35.632812 C 6.238281 38.703125 4.6875 43.390625 4.6875 50 C 4.6875 56.609375 6.238281 61.296875 8.804688 64.367188 C 11.371094 67.4375 14.921875 68.75 18.378906 68.75 L 28.125 68.75 L 28.125 81.621094 C 28.125 87.441406 33.996094 95.3125 50 95.3125 C 66.003906 95.3125 71.875 87.441406 71.875 81.621094 L 71.875 71.875 L 51.5625 71.875 L 51.5625 68.75 L 81.621094 68.75 C 85.078125 68.75 88.628906 67.4375 91.195312 64.367188 C 93.761719 61.296875 95.3125 56.609375 95.3125 50 C 95.3125 43.390625 93.761719 38.703125 91.195312 35.632812 C 88.628906 32.5625 85.078125 31.25 81.621094 31.25 L 71.878906 31.25 L 71.878906 18.378906 C 71.878906 15.390625 70.414062 11.894531 66.925781 9.214844 C 63.4375 6.535156 57.996094 4.6875 50 4.6875 Z M 50 7.8125 C 57.515625 7.8125 62.230469 9.546875 65.019531 11.691406 C 67.8125 13.835938 68.753906 16.398438 68.753906 18.378906 L 68.753906 31.25 L 68.75 31.25 L 68.75 42.042969 C 68.75 43.328125 68.289062 44.546875 67.523438 45.570312 C 66.503906 46.9375 64.945312 47.953125 63.234375 48.304688 C 62.808594 48.390625 62.371094 48.4375 61.933594 48.4375 L 38.066406 48.4375 C 32.839844 48.4375 28.125 52.628906 28.125 57.957031 L 28.125 65.625 L 18.378906 65.625 C 15.675781 65.625 13.160156 64.703125 11.203125 62.363281 C 9.246094 60.023438 7.8125 56.117188 7.8125 50 C 7.8125 43.882812 9.246094 39.976562 11.203125 37.636719 C 13.160156 35.296875 15.675781 34.375 18.378906 34.375 L 51.5625 34.375 L 51.5625 25 L 31.25 25 L 31.25 18.378906 C 31.25 14.65625 34.984375 7.8125 50 7.8125 Z M 41.40625 14.0625 C 39.25 14.0625 37.5 15.8125 37.5 17.96875 C 37.5 20.125 39.25 21.875 41.40625 21.875 C 43.5625 21.875 45.3125 20.125 45.3125 17.96875 C 45.3125 15.8125 43.5625 14.0625 41.40625 14.0625 Z M 71.878906 34.375 L 81.621094 34.375 C 84.324219 34.375 86.839844 35.296875 88.796875 37.636719 C 90.753906 39.976562 92.1875 43.882812 92.1875 50 C 92.1875 56.117188 90.753906 60.023438 88.796875 62.363281 C 86.839844 64.703125 84.324219 65.625 81.621094 65.625 L 48.4375 65.625 L 48.4375 75 L 68.75 75 L 68.75 81.621094 C 68.75 85.34375 65.015625 92.1875 50 92.1875 C 34.984375 92.1875 31.25 85.34375 31.25 81.621094 L 31.25 57.957031 C 31.25 57.527344 31.300781 57.105469 31.398438 56.699219 C 32.078125 53.835938 34.984375 51.5625 38.066406 51.5625 L 61.933594 51.5625 C 62.257812 51.5625 62.585938 51.546875 62.90625 51.511719 C 64.835938 51.320312 66.65625 50.566406 68.144531 49.410156 L 68.148438 49.410156 C 68.398438 49.21875 68.632812 49.015625 68.863281 48.800781 L 68.867188 48.800781 C 70.699219 47.085938 71.878906 44.707031 71.878906 42.042969 Z M 24.433594 37.605469 C 23.570312 37.621094 22.882812 38.328125 22.894531 39.191406 L 22.894531 42.316406 C 22.886719 42.878906 23.183594 43.402344 23.667969 43.6875 C 24.15625 43.972656 24.757812 43.972656 25.246094 43.6875 C 25.730469 43.402344 26.027344 42.878906 26.019531 42.316406 L 26.019531 39.191406 C 26.023438 38.769531 25.859375 38.363281 25.5625 38.0625 C 25.261719 37.765625 24.855469 37.601562 24.433594 37.605469 Z M 31.5625 37.605469 C 30.703125 37.621094 30.015625 38.328125 30.027344 39.191406 L 30.027344 42.316406 C 30.019531 42.878906 30.3125 43.402344 30.800781 43.6875 C 31.289062 43.972656 31.890625 43.972656 32.375 43.6875 C 32.863281 43.402344 33.160156 42.878906 33.152344 42.316406 L 33.152344 39.191406 C 33.15625 38.769531 32.992188 38.363281 32.691406 38.0625 C 32.394531 37.765625 31.988281 37.601562 31.5625 37.605469 Z M 38.699219 37.605469 C 37.835938 37.621094 37.148438 38.328125 37.160156 39.191406 L 37.160156 42.316406 C 37.152344 42.878906 37.449219 43.402344 37.9375 43.6875 C 38.421875 43.972656 39.023438 43.972656 39.511719 43.6875 C 40 43.402344 40.292969 42.878906 40.285156 42.316406 L 40.285156 39.191406 C 40.292969 38.769531 40.125 38.363281 39.828125 38.0625 C 39.527344 37.765625 39.121094 37.601562 38.699219 37.605469 Z M 45.832031 37.605469 C 44.96875 37.621094 44.28125 38.328125 44.292969 39.191406 L 44.292969 42.316406 C 44.285156 42.878906 44.582031 43.402344 45.066406 43.6875 C 45.554688 43.972656 46.15625 43.972656 46.644531 43.6875 C 47.128906 43.402344 47.425781 42.878906 47.417969 42.316406 L 47.417969 39.191406 C 47.425781 38.769531 47.257812 38.363281 46.960938 38.0625 C 46.660156 37.765625 46.253906 37.601562 45.832031 37.605469 Z M 58.808594 56.230469 C 57.945312 56.242188 57.257812 56.949219 57.269531 57.8125 L 57.269531 60.9375 C 57.261719 61.5 57.558594 62.023438 58.042969 62.308594 C 58.53125 62.59375 59.132812 62.59375 59.621094 62.308594 C 60.105469 62.023438 60.402344 61.5 60.394531 60.9375 L 60.394531 57.8125 C 60.398438 57.390625 60.234375 56.984375 59.9375 56.683594 C 59.636719 56.386719 59.230469 56.222656 58.808594 56.230469 Z M 65.9375 56.230469 C 65.078125 56.242188 64.390625 56.949219 64.402344 57.8125 L 64.402344 60.9375 C 64.394531 61.5 64.6875 62.023438 65.175781 62.308594 C 65.664062 62.59375 66.265625 62.59375 66.75 62.308594 C 67.238281 62.023438 67.535156 61.5 67.527344 60.9375 L 67.527344 57.8125 C 67.53125 57.390625 67.367188 56.984375 67.066406 56.683594 C 66.769531 56.386719 66.363281 56.222656 65.9375 56.230469 Z M 73.074219 56.230469 C 72.210938 56.242188 71.523438 56.949219 71.535156 57.8125 L 71.535156 60.9375 C 71.527344 61.5 71.824219 62.023438 72.3125 62.308594 C 72.796875 62.59375 73.398438 62.59375 73.886719 62.308594 C 74.375 62.023438 74.667969 61.5 74.660156 60.9375 L 74.660156 57.8125 C 74.667969 57.390625 74.5 56.984375 74.203125 56.683594 C 73.902344 56.386719 73.496094 56.222656 73.074219 56.230469 Z M 80.207031 56.230469 C 79.34375 56.242188 78.65625 56.949219 78.667969 57.8125 L 78.667969 60.9375 C 78.660156 61.5 78.957031 62.023438 79.441406 62.308594 C 79.929688 62.59375 80.53125 62.59375 81.019531 62.308594 C 81.503906 62.023438 81.800781 61.5 81.792969 60.9375 L 81.792969 57.8125 C 81.800781 57.390625 81.632812 56.984375 81.335938 56.683594 C 81.035156 56.386719 80.628906 56.222656 80.207031 56.230469 Z M 60.15625 78.125 C 58 78.125 56.25 79.875 56.25 82.03125 C 56.25 84.1875 58 85.9375 60.15625 85.9375 C 62.3125 85.9375 64.0625 84.1875 64.0625 82.03125 C 64.0625 79.875 62.3125 78.125 60.15625 78.125 Z M 60.15625 78.125 "/>
</g>
</svg>
