<?xml version="1.0" encoding="UTF-8"?>
<svg xmlns="http://www.w3.org/2000/svg" xmlns:xlink="http://www.w3.org/1999/xlink" width="100pt" height="100pt" viewBox="0 0 100 100" version="1.1">
<g id="surface61">
<path style=" stroke:none;fill-rule:nonzero;fill:rgb(90.588235%,29.803922%,23.529412%);fill-opacity:1;" d="M 50 8.332031 C 40.816406 8.332031 33.332031 15.816406 33.332031 25 L 33.332031 33.332031 L 29.167969 33.332031 C 24.613281 33.332031 20.832031 37.113281 20.832031 41.667969 L 20.832031 66.667969 C 20.832031 71.222656 24.613281 75 29.167969 75 L 45.832031 75 L 45.832031 83.332031 L 8.332031 83.332031 L 8.332031 91.667969 L 91.667969 91.667969 L 91.667969 83.332031 L 54.167969 83.332031 L 54.167969 75 L 70.832031 75 C 75.386719 75 79.167969 71.222656 79.167969 66.667969 L 79.167969 41.667969 C 79.167969 37.113281 75.386719 33.332031 70.832031 33.332031 L 66.667969 33.332031 L 66.667969 25 C 66.667969 15.816406 59.183594 8.332031 50 8.332031 Z M 50 16.667969 C 54.816406 16.667969 58.332031 20.183594 58.332031 25 L 58.332031 33.332031 L 41.667969 33.332031 L 41.667969 25 C 41.667969 20.183594 45.183594 16.667969 50 16.667969 Z M 29.167969 41.667969 L 70.832031 41.667969 L 70.832031 66.667969 L 29.167969 66.667969 Z M 50 50 C 47.707031 50 45.832031 51.875 45.832031 54.167969 C 45.832031 56.457031 47.707031 58.332031 50 58.332031 C 52.292969 58.332031 54.167969 56.457031 54.167969 54.167969 C 54.167969 51.875 52.292969 50 50 50 Z M 50 50 "/>
</g>
</svg>
