<?xml version="1.0" encoding="UTF-8"?>
<svg xmlns="http://www.w3.org/2000/svg" xmlns:xlink="http://www.w3.org/1999/xlink" width="100pt" height="100pt" viewBox="0 0 100 100" version="1.1">
<g id="surface6512">
<path style=" stroke:none;fill-rule:nonzero;fill:rgb(90.588235%,29.803922%,23.529412%);fill-opacity:1;" d="M 32.75 -0.0625 C 32.664062 -0.046875 32.578125 -0.0234375 32.5 0 C 31.84375 0.148438 31.304688 0.609375 31.0625 1.242188 C 30.820312 1.875 30.914062 2.578125 31.3125 3.125 L 35.5625 9.5 C 28.367188 13.28125 23.203125 19.804688 22 27.5625 C 22 27.585938 22 27.601562 22 27.625 C 22 27.648438 22 27.664062 22 27.6875 C 22 27.75 22 27.8125 22 27.875 C 22 27.914062 22 27.960938 22 28 C 21.992188 28.101562 21.992188 28.210938 22 28.3125 L 22 31.125 C 20.8125 30.429688 19.46875 30 18 30 C 13.601562 30 10 33.601562 10 38 L 10 62 C 10 66.398438 13.601562 70 18 70 C 19.46875 70 20.8125 69.570312 22 68.875 L 22 74 C 22 77.289062 24.710938 80 28 80 L 30 80 L 30 92 C 30 96.398438 33.601562 100 38 100 C 42.398438 100 46 96.398438 46 92 L 46 80 L 54 80 L 54 92 C 54 96.398438 57.601562 100 62 100 C 66.398438 100 70 96.398438 70 92 L 70 80 L 72 80 C 75.289062 80 78 77.289062 78 74 L 78 68.875 C 79.1875 69.570312 80.53125 70 82 70 C 86.398438 70 90 66.398438 90 62 L 90 38 C 90 33.601562 86.398438 30 82 30 C 80.53125 30 79.1875 30.429688 78 31.125 L 78 28.375 C 78.023438 28.1875 78.023438 28 78 27.8125 C 78 27.789062 78 27.773438 78 27.75 C 78 27.726562 78 27.710938 78 27.6875 C 76.835938 19.875 71.671875 13.296875 64.4375 9.5 L 68.6875 3.125 C 69.179688 2.453125 69.195312 1.546875 68.734375 0.851562 C 68.28125 0.15625 67.4375 -0.1875 66.625 0 C 66.109375 0.117188 65.65625 0.429688 65.375 0.875 L 60.6875 7.8125 C 57.390625 6.625 53.765625 6 50 6 C 46.234375 6 42.609375 6.625 39.3125 7.8125 L 34.625 0.875 C 34.226562 0.234375 33.5 -0.125 32.75 -0.0625 Z M 50 10 C 53.757812 10 57.28125 10.734375 60.375 12.0625 C 60.4375 12.085938 60.5 12.109375 60.5625 12.125 C 66.820312 14.867188 71.375 20 73.125 26 L 26.875 26 C 28.601562 20.085938 33.0625 15.015625 39.1875 12.25 C 39.320312 12.203125 39.445312 12.140625 39.5625 12.0625 C 42.671875 10.71875 46.21875 10 50 10 Z M 39 16 C 37.335938 16 36 17.34375 36 19 C 36 20.664062 37.335938 22 39 22 C 40.65625 22 42 20.664062 42 19 C 42 17.34375 40.65625 16 39 16 Z M 61 16 C 59.34375 16 58 17.34375 58 19 C 58 20.664062 59.34375 22 61 22 C 62.664062 22 64 20.664062 64 19 C 64 17.34375 62.664062 16 61 16 Z M 26 30 L 74 30 L 74 74 C 74 75.125 73.125 76 72 76 L 56.375 76 C 56.109375 75.945312 55.828125 75.945312 55.5625 76 L 32.375 76 C 32.109375 75.945312 31.828125 75.945312 31.5625 76 L 28 76 C 26.875 76 26 75.125 26 74 Z M 18 34 C 20.234375 34 22 35.765625 22 38 L 22 62 C 22 64.234375 20.234375 66 18 66 C 15.765625 66 14 64.234375 14 62 L 14 38 C 14 35.765625 15.765625 34 18 34 Z M 82 34 C 84.234375 34 86 35.765625 86 38 L 86 62 C 86 64.234375 84.234375 66 82 66 C 79.765625 66 78 64.234375 78 62 L 78 38 C 78 35.765625 79.765625 34 82 34 Z M 34 80 L 42 80 L 42 92 C 42 94.234375 40.234375 96 38 96 C 35.765625 96 34 94.234375 34 92 Z M 58 80 L 66 80 L 66 92 C 66 94.234375 64.234375 96 62 96 C 59.765625 96 58 94.234375 58 92 Z M 58 80 "/>
</g>
</svg>
