<?xml version="1.0" encoding="UTF-8"?>
<svg xmlns="http://www.w3.org/2000/svg" xmlns:xlink="http://www.w3.org/1999/xlink" width="100pt" height="100pt" viewBox="0 0 100 100" version="1.1">
<g id="surface6445">
<path style=" stroke:none;fill-rule:nonzero;fill:rgb(90.588235%,29.803922%,23.529412%);fill-opacity:1;" d="M 23.894531 16 C 23.808594 16.003906 23.722656 16.011719 23.640625 16.027344 L 1.640625 20.03125 C 1.015625 20.144531 0.480469 20.550781 0.203125 21.121094 C -0.078125 21.691406 -0.0664062 22.363281 0.226562 22.925781 L 24.226562 68.925781 C 24.664062 69.761719 25.625 70.179688 26.535156 69.925781 L 48.132812 63.925781 L 60.265625 84.996094 C 60.753906 85.84375 61.78125 86.214844 62.695312 85.875 L 96.707031 73.304688 C 97.285156 73.089844 97.730469 72.625 97.917969 72.039062 C 98.105469 71.453125 98.011719 70.8125 97.667969 70.304688 L 86.179688 53.359375 L 98.535156 49.925781 C 99.160156 49.753906 99.660156 49.289062 99.882812 48.679688 C 100.101562 48.074219 100.015625 47.394531 99.648438 46.863281 L 88.652344 30.914062 C 88.171875 30.21875 87.3125 29.902344 86.496094 30.117188 L 71.492188 34.066406 C 70.863281 34.230469 70.355469 34.691406 70.128906 35.296875 C 69.898438 35.902344 69.980469 36.582031 70.34375 37.121094 L 79.75 50.996094 L 50.054688 59.242188 L 25.730469 17 C 25.355469 16.347656 24.644531 15.960938 23.894531 16 Z M 22.96875 20.214844 L 46.074219 60.347656 L 27.023438 65.640625 L 5.03125 23.480469 Z M 86.15625 34.339844 L 94.757812 46.824219 L 83.816406 49.867188 L 75.238281 37.214844 Z M 82.113281 54.488281 L 92.925781 70.4375 L 62.890625 81.539062 L 52.113281 62.820312 Z M 82.113281 54.488281 "/>
</g>
</svg>
