<svg id="Layer_1" data-name="Layer 1" xmlns="http://www.w3.org/2000/svg" viewBox="0 0 391.62 743.93"><defs><style>.cls-1{fill:#fff;}</style></defs><title>logo-white</title><g id="Layer_2" data-name="Layer 2"><g id="Layer_1-2" data-name="Layer 1-2"><path class="cls-1" d="M12.52,0c-.15,27.42-.73,54.87,2.57,82.16a129.8,129.8,0,0,0,5,22.3c2.22,7.26,6.16,8.38,11.55,3A127.93,127.93,0,0,0,48,87.56c8.37-12.79,15.37-26.49,23.91-39.15,6-8.92,12.72-17.78,20.72-24.86,14.87-13.18,29.12-9.4,37.71,8.67,6,12.72,8.73,26.34,10.61,40.13,5.09,37.36,5.47,74.91,4.36,112.51-.16,5.44-.12,5.43,5.35,5.46,9.6.05,19.21-.17,28.79.25,7.28.31,12.6,4.25,15.26,11.11s1.21,13.16-3.59,18.63a16.47,16.47,0,0,1-12.63,5.59c-25.87.16-51.77.6-77.62-.15-17.38-.5-20.9-18.76-14.2-27.82,3.85-5.22,9.07-7.57,15.44-7.59h30.8c.16-2.61.39-4.8.43-7,.73-35.51.61-71-3.94-106.29-1.8-13.91-3.68-27.91-10.25-40.61C114.1,26.62,107.9,25,100.18,33A185.94,185.94,0,0,0,79.31,59.34c-9,13.5-16.64,28-25.86,41.35a89.2,89.2,0,0,1-18.09,18.77c-8.75,6.91-18.77,4.14-24.26-5.65-5.87-10.45-7.76-22.1-8.35-33.74C1.48,55.2,1,30.29.24,5.4.18,3.6.08,1.8,0,0Z"/><path class="cls-1" d="M222.52,412.51c33.23,21.17,39.87,38.63,29.07,76.29,3.24,2.59,6.67,5,9.69,7.81,28.6,26.71,22.19,72.48-12.64,90.21-2.72,1.38-3.73,2.76-3.37,6,3.48,31-19.87,55.65-48.78,55.82-7.27,0-10.25,1.87-13.58,8.21-10.74,20.45-33.68,29.77-56,24S89.53,655.57,89.5,631.91q-.14-106.68,0-213.38c0-16-.12-32,0-48,.19-19.15,8.54-33.62,26.13-41.56,17.88-8.08,34.47-4.69,49.13,8.13,5.56,4.87,9.11,11.2,11.35,18.2.7,2.2,1.75,3.1,4.12,3.07,19.1-.23,42.23,15.43,43.14,44.29C223.47,405.94,222.82,409.26,222.52,412.51Z"/><path class="cls-1" d="M139.57,307.33c-12.92,0-25.85.14-38.77-.05a17.72,17.72,0,0,1-16.57-13c-2.13-7.06.26-15,6.67-19.08a21.8,21.8,0,0,1,10.85-3.43c25.29-.3,50.59-.28,75.88-.11,10.74.07,18.51,8,18.38,18s-8.23,17.56-18.91,17.63c-12.51.07-25,0-37.53,0Z"/><path class="cls-1" d="M139.65,266.58c-12.79,0-25.59.22-38.38-.07-11.12-.25-18.41-8.53-17.68-19.36.63-9.22,7.93-16.07,18.46-16.17,25.17-.26,50.34-.16,75.5,0,7.69,0,13.69,3.42,16.91,10.73,3,6.8,1.62,13.09-2.86,18.74-3.86,4.88-9.32,6.2-15.24,6.2H139.65Z"/><path class="cls-1" d="M248.87,353.09c-4.28.15-6.74-3.6-5.19-6.68a11.64,11.64,0,0,1,2.3-2.93q23.11-23.21,46.28-46.34c.78-.78,1.64-1.94,2.55-2,1.77-.18,4.29-.38,5.21.62,1.1,1.19,1.23,3.66,1,5.5-.12,1.15-1.53,2.24-2.5,3.21q-22.83,22.92-45.72,45.75A28.23,28.23,0,0,1,248.87,353.09Z"/><path class="cls-1" d="M251.6,659.43a32.48,32.48,0,0,1,4.16,1.55c19.39,11.17,38.8,22.31,58.06,33.7,1.64,1,2.71,3.6,3.11,5.65.19,1-1.64,2.93-2.93,3.39a6.32,6.32,0,0,1-4.68-.65Q280,686.3,250.84,669.29c-2.3-1.34-4.13-3.32-2.86-6.12C248.67,661.65,250.41,660.61,251.6,659.43Z"/><path class="cls-1" d="M307.87,467.23c-1.1-1.15-3.13-2.39-3.73-4.12-1.05-3.06,1-5,3.87-5.77q12.44-3.42,24.89-6.76l39-10.44c.54-.14,1.06-.35,1.6-.48,3.08-.75,5.72-.13,6.68,3.17s-1.13,5.19-4.15,6c-7.09,1.95-14.2,3.84-21.3,5.76l-42.59,11.5Z"/><path class="cls-1" d="M192.41,699.26c2,.89,3.15,1.31,4.22,1.93q28.68,16.54,57.34,33.16c4.06,2.36,4.8,5.29,2.28,8-2.35,2.54-4.76,1.51-7.15.14L213,721.62,191,709c-2.45-1.41-3.94-3.6-2.7-6.21C189.05,701.21,191.15,700.29,192.41,699.26Z"/><path class="cls-1" d="M291.87,406c-1.32-1-3.26-1.83-3.84-3.2s-.14-3.47.56-4.91c.52-1.08,2.12-1.69,3.31-2.38Q320,379.24,348.12,363c1.51-.87,3.49-2,4.91-1.61s3.82,2.44,3.73,3.62a7.92,7.92,0,0,1-3.07,5.58c-10.78,6.56-21.78,12.77-32.71,19.08q-12.08,7-24.16,13.93C295.39,404.43,293.85,405.06,291.87,406Z"/><path class="cls-1" d="M366.58,626.39c-6.32-1.63-11.57-2.94-16.8-4.34q-24.73-6.6-49.47-13.25a27.26,27.26,0,0,1-3.18-1,4.51,4.51,0,0,1-3.05-5.66,4.22,4.22,0,0,1,5.38-3.34c4.07.86,8.1,1.94,12.12,3l52.27,14c1.34.36,3,.49,3.84,1.39,1.25,1.38,2.79,3.52,2.49,5C369.83,623.94,367.63,625.26,366.58,626.39Z"/><path class="cls-1" d="M351.89,537.29H319c-4.25,0-6.84-1.8-6.48-4.68.48-3.8,3.11-4.65,6.62-4.64q33.11.13,66.21,0c2.7,0,5.07.42,6,3.3,1.08,3.32-1.18,5.94-5.32,6C374.65,537.34,363.27,537.29,351.89,537.29Z"/></g></g></svg>
